<svg width="20" height="17" viewBox="0 0 20 17" fill="none" xmlns="http://www.w3.org/2000/svg">
<path d="M18 16.5556H2C0.930516 16.5876 0.0364164 15.7489 0 14.6796V2.43061C0.0364132 1.36141 0.930683 0.523034 2 0.555605H18C19.0693 0.523034 19.9636 1.36141 20 2.43061V14.6806C19.963 15.7496 19.0691 16.5876 18 16.5556ZM2 2.55561V14.5446L18 14.5556V2.56661L2 2.55561ZM11.43 12.5556H4C4.07353 11.7277 4.46534 10.9605 5.093 10.4156C5.79183 9.72232 6.73081 9.32481 7.715 9.3056C8.69919 9.32481 9.63817 9.72232 10.337 10.4156C10.9645 10.9607 11.3563 11.7277 11.43 12.5556ZM16 11.5556H13V9.5556H16V11.5556ZM7.715 8.5556C7.17907 8.57423 6.65947 8.3695 6.28029 7.99032C5.9011 7.61113 5.69638 7.09153 5.715 6.55561C5.69668 6.01976 5.9015 5.50034 6.28062 5.12122C6.65974 4.74211 7.17916 4.53728 7.715 4.55561C8.25084 4.53728 8.77026 4.74211 9.14938 5.12122C9.5285 5.50034 9.73332 6.01976 9.715 6.55561C9.73362 7.09153 9.5289 7.61113 9.14971 7.99032C8.77053 8.3695 8.25093 8.57423 7.715 8.5556ZM16 7.55561H12V5.55561H16V7.55561Z" fill="#23509D"/>
</svg>
