<svg width="24" height="16" viewBox="0 0 24 16" fill="none" xmlns="http://www.w3.org/2000/svg">
<mask id="path-1-outside-1_1103_1063" maskUnits="userSpaceOnUse" x="0.0429688" y="0.216797" width="24" height="15" fill="black">
<rect fill="white" x="0.0429688" y="0.216797" width="24" height="15"/>
<path fill-rule="evenodd" clip-rule="evenodd" d="M11.6409 1.23107C11.2301 1.26768 10.7427 1.4212 10.3732 1.6303C10.0332 1.82269 9.46334 2.37352 9.26704 2.69954C8.6922 3.65415 8.68617 4.92175 9.25195 5.85522C9.45462 6.18955 9.85385 6.61862 10.1336 6.80281C10.2741 6.89529 10.3268 6.95107 10.2867 6.96478C9.93426 7.08533 9.62651 7.20718 9.43325 7.3027C9.14901 7.44315 8.52809 7.83883 8.45289 7.92737C8.42288 7.96276 8.38261 7.99168 8.36338 7.99168C8.34418 7.99168 8.17994 7.88751 7.99843 7.76023C7.71274 7.55986 7.24024 7.31018 6.98319 7.22377C6.91629 7.20129 6.95237 7.14713 7.21848 6.87063C7.85433 6.20994 8.07281 5.42603 7.85411 4.59009C7.32061 2.55107 4.56926 2.08114 3.37589 3.82523C3.07887 4.25926 2.95995 4.64491 2.9608 5.17109C2.96191 5.88372 3.21986 6.47604 3.73374 6.94614L3.99617 7.1862L3.75511 7.28156C3.22738 7.49033 2.84333 7.74911 2.35997 8.22163C1.52654 9.0363 1.12988 9.90613 1.069 11.0525L1.04297 11.5435H3.698H6.35308L6.3291 12.0972C6.30088 12.7488 6.36547 13.126 6.57755 13.548C6.76299 13.917 7.23152 14.3726 7.59912 14.5413C8.13732 14.7884 8.01955 14.782 12.021 14.782H15.6974L16.0018 14.6884C16.5647 14.5154 17.1266 14.0515 17.3891 13.5432C17.5991 13.1366 17.6542 12.8177 17.6318 12.139L17.6122 11.5435H20.2841H22.956L22.9313 11.0734C22.8846 10.1869 22.6431 9.49579 22.1214 8.75592C21.703 8.16246 20.9222 7.54126 20.289 7.29798L20.0073 7.18976L20.3123 6.88768C20.8068 6.39798 21.036 5.84728 21.0354 5.15019C21.0345 4.11711 20.3578 3.21084 19.3311 2.86744C18.9034 2.7244 18.2876 2.70702 17.8776 2.82644C17.0184 3.07666 16.326 3.78419 16.1251 4.61725C15.9296 5.42749 16.1653 6.24082 16.7774 6.86879L17.0881 7.1875L16.8515 7.28135C16.5618 7.39631 16.1022 7.66127 15.8563 7.85516C15.7556 7.9346 15.6493 7.99059 15.6201 7.97965C15.5909 7.9687 15.4209 7.85725 15.2423 7.73198C14.8678 7.46931 14.2638 7.15758 13.9234 7.05115C13.794 7.01074 13.6723 6.96875 13.6528 6.95788C13.6334 6.94698 13.7119 6.8759 13.8274 6.79989C14.1032 6.61832 14.5031 6.18767 14.7046 5.85522C15.2654 4.9301 15.2647 3.67316 14.7029 2.72457C14.498 2.37858 13.9374 1.83059 13.5834 1.6303C13.0163 1.30938 12.3344 1.16923 11.6409 1.23107ZM12.5669 1.95645C13.4503 2.18021 14.166 2.88549 14.3706 3.73376C14.6563 4.91832 13.9827 6.12737 12.7905 6.57014C12.4387 6.70081 11.7854 6.73269 11.4009 6.63792C10.9217 6.51983 10.5995 6.3389 10.247 5.98994C9.72531 5.47354 9.51118 4.98004 9.51413 4.30113C9.5172 3.59507 9.72582 3.10917 10.2455 2.59762C10.5902 2.25836 10.9531 2.04963 11.3701 1.95089C11.6852 1.87622 12.2608 1.87889 12.5669 1.95645ZM5.92935 3.48826C6.96648 3.79104 7.51067 4.93566 7.06741 5.882C6.7267 6.60955 5.94474 7.03201 5.16586 6.90941C4.18683 6.7553 3.49755 5.84527 3.65525 4.91498C3.83458 3.85707 4.90103 3.18798 5.92935 3.48826ZM19.0532 3.48826C20.0883 3.79046 20.6336 4.93754 20.1912 5.882C19.85 6.61072 19.0687 7.03205 18.2869 6.90895C17.4983 6.78484 16.9117 6.20919 16.7796 5.43008C16.6664 4.76233 16.9928 4.06838 17.5989 3.68821C18.0157 3.42675 18.5779 3.34944 19.0532 3.48826ZM12.8677 7.4691C13.3396 7.55735 13.791 7.71355 14.2635 7.95215C15.4944 8.5736 16.4029 9.68186 16.7647 11.0034C16.8803 11.4255 16.9785 12.335 16.9379 12.6068C16.8375 13.2785 16.5332 13.708 15.9773 13.9629L15.7402 14.0716H11.9783H8.21641L7.94786 13.9504C7.60544 13.7958 7.25845 13.4399 7.1205 13.1016C7.03244 12.8856 7.02239 12.795 7.02641 12.2539C7.02936 11.8607 7.05634 11.5307 7.10323 11.3137C7.5335 9.32405 9.04069 7.86624 11.0806 7.46684C11.4565 7.39326 12.469 7.39451 12.8677 7.4691ZM6.37723 7.74142C6.76671 7.84334 7.20053 8.04534 7.56158 8.29288C7.69838 8.38669 7.81029 8.46913 7.81029 8.47611C7.81029 8.48309 7.71766 8.59788 7.60446 8.73122C7.16526 9.24854 6.84883 9.80576 6.61252 10.478L6.49505 10.8123L4.13288 10.8231L1.77072 10.8339L1.79616 10.6242C1.81009 10.5089 1.87832 10.2536 1.9477 10.0569C2.36912 8.86176 3.40188 7.97179 4.68964 7.69408C5.1618 7.59224 5.88472 7.61251 6.37723 7.74142ZM19.539 7.76018C20.575 8.05691 21.386 8.71338 21.864 9.64225C22.0114 9.92866 22.149 10.3447 22.1922 10.6347L22.2218 10.8332H19.8334H17.4449L17.3918 10.6309C17.2597 10.1269 16.8123 9.31017 16.378 8.78028L16.151 8.50332L16.2449 8.41907C16.5886 8.11027 17.3072 7.78651 17.8876 7.67891C18.3733 7.58886 19.0584 7.62258 19.539 7.76018Z"/>
</mask>
<path fill-rule="evenodd" clip-rule="evenodd" d="M11.6409 1.23107C11.2301 1.26768 10.7427 1.4212 10.3732 1.6303C10.0332 1.82269 9.46334 2.37352 9.26704 2.69954C8.6922 3.65415 8.68617 4.92175 9.25195 5.85522C9.45462 6.18955 9.85385 6.61862 10.1336 6.80281C10.2741 6.89529 10.3268 6.95107 10.2867 6.96478C9.93426 7.08533 9.62651 7.20718 9.43325 7.3027C9.14901 7.44315 8.52809 7.83883 8.45289 7.92737C8.42288 7.96276 8.38261 7.99168 8.36338 7.99168C8.34418 7.99168 8.17994 7.88751 7.99843 7.76023C7.71274 7.55986 7.24024 7.31018 6.98319 7.22377C6.91629 7.20129 6.95237 7.14713 7.21848 6.87063C7.85433 6.20994 8.07281 5.42603 7.85411 4.59009C7.32061 2.55107 4.56926 2.08114 3.37589 3.82523C3.07887 4.25926 2.95995 4.64491 2.9608 5.17109C2.96191 5.88372 3.21986 6.47604 3.73374 6.94614L3.99617 7.1862L3.75511 7.28156C3.22738 7.49033 2.84333 7.74911 2.35997 8.22163C1.52654 9.0363 1.12988 9.90613 1.069 11.0525L1.04297 11.5435H3.698H6.35308L6.3291 12.0972C6.30088 12.7488 6.36547 13.126 6.57755 13.548C6.76299 13.917 7.23152 14.3726 7.59912 14.5413C8.13732 14.7884 8.01955 14.782 12.021 14.782H15.6974L16.0018 14.6884C16.5647 14.5154 17.1266 14.0515 17.3891 13.5432C17.5991 13.1366 17.6542 12.8177 17.6318 12.139L17.6122 11.5435H20.2841H22.956L22.9313 11.0734C22.8846 10.1869 22.6431 9.49579 22.1214 8.75592C21.703 8.16246 20.9222 7.54126 20.289 7.29798L20.0073 7.18976L20.3123 6.88768C20.8068 6.39798 21.036 5.84728 21.0354 5.15019C21.0345 4.11711 20.3578 3.21084 19.3311 2.86744C18.9034 2.7244 18.2876 2.70702 17.8776 2.82644C17.0184 3.07666 16.326 3.78419 16.1251 4.61725C15.9296 5.42749 16.1653 6.24082 16.7774 6.86879L17.0881 7.1875L16.8515 7.28135C16.5618 7.39631 16.1022 7.66127 15.8563 7.85516C15.7556 7.9346 15.6493 7.99059 15.6201 7.97965C15.5909 7.9687 15.4209 7.85725 15.2423 7.73198C14.8678 7.46931 14.2638 7.15758 13.9234 7.05115C13.794 7.01074 13.6723 6.96875 13.6528 6.95788C13.6334 6.94698 13.7119 6.8759 13.8274 6.79989C14.1032 6.61832 14.5031 6.18767 14.7046 5.85522C15.2654 4.9301 15.2647 3.67316 14.7029 2.72457C14.498 2.37858 13.9374 1.83059 13.5834 1.6303C13.0163 1.30938 12.3344 1.16923 11.6409 1.23107ZM12.5669 1.95645C13.4503 2.18021 14.166 2.88549 14.3706 3.73376C14.6563 4.91832 13.9827 6.12737 12.7905 6.57014C12.4387 6.70081 11.7854 6.73269 11.4009 6.63792C10.9217 6.51983 10.5995 6.3389 10.247 5.98994C9.72531 5.47354 9.51118 4.98004 9.51413 4.30113C9.5172 3.59507 9.72582 3.10917 10.2455 2.59762C10.5902 2.25836 10.9531 2.04963 11.3701 1.95089C11.6852 1.87622 12.2608 1.87889 12.5669 1.95645ZM5.92935 3.48826C6.96648 3.79104 7.51067 4.93566 7.06741 5.882C6.7267 6.60955 5.94474 7.03201 5.16586 6.90941C4.18683 6.7553 3.49755 5.84527 3.65525 4.91498C3.83458 3.85707 4.90103 3.18798 5.92935 3.48826ZM19.0532 3.48826C20.0883 3.79046 20.6336 4.93754 20.1912 5.882C19.85 6.61072 19.0687 7.03205 18.2869 6.90895C17.4983 6.78484 16.9117 6.20919 16.7796 5.43008C16.6664 4.76233 16.9928 4.06838 17.5989 3.68821C18.0157 3.42675 18.5779 3.34944 19.0532 3.48826ZM12.8677 7.4691C13.3396 7.55735 13.791 7.71355 14.2635 7.95215C15.4944 8.5736 16.4029 9.68186 16.7647 11.0034C16.8803 11.4255 16.9785 12.335 16.9379 12.6068C16.8375 13.2785 16.5332 13.708 15.9773 13.9629L15.7402 14.0716H11.9783H8.21641L7.94786 13.9504C7.60544 13.7958 7.25845 13.4399 7.1205 13.1016C7.03244 12.8856 7.02239 12.795 7.02641 12.2539C7.02936 11.8607 7.05634 11.5307 7.10323 11.3137C7.5335 9.32405 9.04069 7.86624 11.0806 7.46684C11.4565 7.39326 12.469 7.39451 12.8677 7.4691ZM6.37723 7.74142C6.76671 7.84334 7.20053 8.04534 7.56158 8.29288C7.69838 8.38669 7.81029 8.46913 7.81029 8.47611C7.81029 8.48309 7.71766 8.59788 7.60446 8.73122C7.16526 9.24854 6.84883 9.80576 6.61252 10.478L6.49505 10.8123L4.13288 10.8231L1.77072 10.8339L1.79616 10.6242C1.81009 10.5089 1.87832 10.2536 1.9477 10.0569C2.36912 8.86176 3.40188 7.97179 4.68964 7.69408C5.1618 7.59224 5.88472 7.61251 6.37723 7.74142ZM19.539 7.76018C20.575 8.05691 21.386 8.71338 21.864 9.64225C22.0114 9.92866 22.149 10.3447 22.1922 10.6347L22.2218 10.8332H19.8334H17.4449L17.3918 10.6309C17.2597 10.1269 16.8123 9.31017 16.378 8.78028L16.151 8.50332L16.2449 8.41907C16.5886 8.11027 17.3072 7.78651 17.8876 7.67891C18.3733 7.58886 19.0584 7.62258 19.539 7.76018Z" fill="#23509D"/>
<path fill-rule="evenodd" clip-rule="evenodd" d="M11.6409 1.23107C11.2301 1.26768 10.7427 1.4212 10.3732 1.6303C10.0332 1.82269 9.46334 2.37352 9.26704 2.69954C8.6922 3.65415 8.68617 4.92175 9.25195 5.85522C9.45462 6.18955 9.85385 6.61862 10.1336 6.80281C10.2741 6.89529 10.3268 6.95107 10.2867 6.96478C9.93426 7.08533 9.62651 7.20718 9.43325 7.3027C9.14901 7.44315 8.52809 7.83883 8.45289 7.92737C8.42288 7.96276 8.38261 7.99168 8.36338 7.99168C8.34418 7.99168 8.17994 7.88751 7.99843 7.76023C7.71274 7.55986 7.24024 7.31018 6.98319 7.22377C6.91629 7.20129 6.95237 7.14713 7.21848 6.87063C7.85433 6.20994 8.07281 5.42603 7.85411 4.59009C7.32061 2.55107 4.56926 2.08114 3.37589 3.82523C3.07887 4.25926 2.95995 4.64491 2.9608 5.17109C2.96191 5.88372 3.21986 6.47604 3.73374 6.94614L3.99617 7.1862L3.75511 7.28156C3.22738 7.49033 2.84333 7.74911 2.35997 8.22163C1.52654 9.0363 1.12988 9.90613 1.069 11.0525L1.04297 11.5435H3.698H6.35308L6.3291 12.0972C6.30088 12.7488 6.36547 13.126 6.57755 13.548C6.76299 13.917 7.23152 14.3726 7.59912 14.5413C8.13732 14.7884 8.01955 14.782 12.021 14.782H15.6974L16.0018 14.6884C16.5647 14.5154 17.1266 14.0515 17.3891 13.5432C17.5991 13.1366 17.6542 12.8177 17.6318 12.139L17.6122 11.5435H20.2841H22.956L22.9313 11.0734C22.8846 10.1869 22.6431 9.49579 22.1214 8.75592C21.703 8.16246 20.9222 7.54126 20.289 7.29798L20.0073 7.18976L20.3123 6.88768C20.8068 6.39798 21.036 5.84728 21.0354 5.15019C21.0345 4.11711 20.3578 3.21084 19.3311 2.86744C18.9034 2.7244 18.2876 2.70702 17.8776 2.82644C17.0184 3.07666 16.326 3.78419 16.1251 4.61725C15.9296 5.42749 16.1653 6.24082 16.7774 6.86879L17.0881 7.1875L16.8515 7.28135C16.5618 7.39631 16.1022 7.66127 15.8563 7.85516C15.7556 7.9346 15.6493 7.99059 15.6201 7.97965C15.5909 7.9687 15.4209 7.85725 15.2423 7.73198C14.8678 7.46931 14.2638 7.15758 13.9234 7.05115C13.794 7.01074 13.6723 6.96875 13.6528 6.95788C13.6334 6.94698 13.7119 6.8759 13.8274 6.79989C14.1032 6.61832 14.5031 6.18767 14.7046 5.85522C15.2654 4.9301 15.2647 3.67316 14.7029 2.72457C14.498 2.37858 13.9374 1.83059 13.5834 1.6303C13.0163 1.30938 12.3344 1.16923 11.6409 1.23107ZM12.5669 1.95645C13.4503 2.18021 14.166 2.88549 14.3706 3.73376C14.6563 4.91832 13.9827 6.12737 12.7905 6.57014C12.4387 6.70081 11.7854 6.73269 11.4009 6.63792C10.9217 6.51983 10.5995 6.3389 10.247 5.98994C9.72531 5.47354 9.51118 4.98004 9.51413 4.30113C9.5172 3.59507 9.72582 3.10917 10.2455 2.59762C10.5902 2.25836 10.9531 2.04963 11.3701 1.95089C11.6852 1.87622 12.2608 1.87889 12.5669 1.95645ZM5.92935 3.48826C6.96648 3.79104 7.51067 4.93566 7.06741 5.882C6.7267 6.60955 5.94474 7.03201 5.16586 6.90941C4.18683 6.7553 3.49755 5.84527 3.65525 4.91498C3.83458 3.85707 4.90103 3.18798 5.92935 3.48826ZM19.0532 3.48826C20.0883 3.79046 20.6336 4.93754 20.1912 5.882C19.85 6.61072 19.0687 7.03205 18.2869 6.90895C17.4983 6.78484 16.9117 6.20919 16.7796 5.43008C16.6664 4.76233 16.9928 4.06838 17.5989 3.68821C18.0157 3.42675 18.5779 3.34944 19.0532 3.48826ZM12.8677 7.4691C13.3396 7.55735 13.791 7.71355 14.2635 7.95215C15.4944 8.5736 16.4029 9.68186 16.7647 11.0034C16.8803 11.4255 16.9785 12.335 16.9379 12.6068C16.8375 13.2785 16.5332 13.708 15.9773 13.9629L15.7402 14.0716H11.9783H8.21641L7.94786 13.9504C7.60544 13.7958 7.25845 13.4399 7.1205 13.1016C7.03244 12.8856 7.02239 12.795 7.02641 12.2539C7.02936 11.8607 7.05634 11.5307 7.10323 11.3137C7.5335 9.32405 9.04069 7.86624 11.0806 7.46684C11.4565 7.39326 12.469 7.39451 12.8677 7.4691ZM6.37723 7.74142C6.76671 7.84334 7.20053 8.04534 7.56158 8.29288C7.69838 8.38669 7.81029 8.46913 7.81029 8.47611C7.81029 8.48309 7.71766 8.59788 7.60446 8.73122C7.16526 9.24854 6.84883 9.80576 6.61252 10.478L6.49505 10.8123L4.13288 10.8231L1.77072 10.8339L1.79616 10.6242C1.81009 10.5089 1.87832 10.2536 1.9477 10.0569C2.36912 8.86176 3.40188 7.97179 4.68964 7.69408C5.1618 7.59224 5.88472 7.61251 6.37723 7.74142ZM19.539 7.76018C20.575 8.05691 21.386 8.71338 21.864 9.64225C22.0114 9.92866 22.149 10.3447 22.1922 10.6347L22.2218 10.8332H19.8334H17.4449L17.3918 10.6309C17.2597 10.1269 16.8123 9.31017 16.378 8.78028L16.151 8.50332L16.2449 8.41907C16.5886 8.11027 17.3072 7.78651 17.8876 7.67891C18.3733 7.58886 19.0584 7.62258 19.539 7.76018Z" stroke="#23509D" stroke-width="0.8" mask="url(#path-1-outside-1_1103_1063)"/>
</svg>
