<svg width="19" height="18" viewBox="0 0 19 18" fill="none" xmlns="http://www.w3.org/2000/svg">
<path fill-rule="evenodd" clip-rule="evenodd" d="M6.48427 5.33805C3.06934 8.72889 1.02396 10.7868 0.877184 10.9795C0.318119 11.7135 0.000445993 12.6143 5.52884e-07 13.4669C-0.000964568 15.2691 1.26171 17.038 3.03471 17.7183C4.12563 18.1368 5.34417 18.087 6.36593 17.582C7.04141 17.2482 6.89363 17.387 12.6527 11.6757C15.8732 8.48181 18.1712 6.17459 18.2957 6.01004C18.7987 5.34521 19.0452 4.55794 18.9932 3.78296C18.8767 2.04992 17.4427 0.565557 15.6982 0.372318C14.9273 0.286909 14.1759 0.479263 13.4373 0.95104C13.21 1.09623 6.34014 7.88055 6.06471 8.23181C5.87001 8.48015 5.66734 8.89122 5.5876 9.19952C5.51481 9.4809 5.51526 10.0528 5.58849 10.3626C5.70702 10.864 6.11066 11.5156 6.50539 11.843C7.06034 12.3031 7.63306 12.5189 8.29618 12.5177C8.88586 12.5166 9.3604 12.3544 9.83773 11.9906C9.96984 11.8899 11.4185 10.4741 13.0568 8.84424L16.0357 5.88093V5.72291C16.0357 5.51134 15.956 5.37058 15.7924 5.29351C15.4916 5.15164 15.6796 4.98794 12.3237 8.31372C9.51501 11.0973 9.24099 11.3584 9.01623 11.4665C8.52825 11.7012 8.04651 11.7047 7.5625 11.4773C7.07285 11.2472 6.64289 10.7716 6.4953 10.2969C6.35588 9.84846 6.41527 9.321 6.64916 8.92991C6.775 8.71948 13.6361 1.90403 13.9335 1.69402C14.2464 1.47308 14.6583 1.31123 15.0532 1.25399C16.1063 1.10146 17.2838 1.76903 17.8173 2.82115C18.2692 3.71215 18.1981 4.63384 17.6156 5.43552C17.378 5.76259 6.71768 16.328 6.44017 16.5115C5.26882 17.2859 3.93324 17.3175 2.76496 16.5983C2.08785 16.1814 1.61858 15.6743 1.27756 14.9908C0.986242 14.407 0.916345 14.1147 0.9159 13.4788C0.915603 13.024 0.92737 12.9239 1.01486 12.6381C1.1263 12.2739 1.27541 11.9621 1.49453 11.6349C1.58989 11.4925 3.57043 9.49521 7.05288 6.02951C11.2954 1.80738 12.4674 0.621501 12.4831 0.534727C12.5156 0.355391 12.4718 0.228568 12.3367 0.11067C12.2341 0.0212047 12.1763 0 12.035 0H11.8603L6.48427 5.33805Z" fill="#23509D"/>
</svg>
