<svg width="13" height="14" viewBox="0 0 13 14" fill="none" xmlns="http://www.w3.org/2000/svg">
<path d="M5.74325 5.0375H6.77925L6.60425 8.3135H5.91125L5.74325 5.0375ZM6.26125 9.9865C6.09792 9.9865 5.96258 9.93517 5.85525 9.8325C5.74792 9.72517 5.69425 9.5945 5.69425 9.4405C5.69425 9.2865 5.74792 9.15817 5.85525 9.0555C5.96258 8.95283 6.09792 8.9015 6.26125 8.9015C6.41992 8.9015 6.55058 8.95283 6.65325 9.0555C6.76058 9.15817 6.81425 9.2865 6.81425 9.4405C6.81425 9.5945 6.76058 9.72517 6.65325 9.8325C6.55058 9.93517 6.41992 9.9865 6.26125 9.9865Z" fill="#FF1F48"/>
<circle cx="6.5" cy="7" r="6.09375" stroke="#FF1F48" stroke-width="0.8125"/>
</svg>
