<svg width="28" height="26" viewBox="0 0 28 26" fill="none" xmlns="http://www.w3.org/2000/svg">
<path fill-rule="evenodd" clip-rule="evenodd" d="M10.7826 1.0388C10.3101 1.13403 9.85426 1.48309 9.61778 1.93079C9.52108 2.11389 9.51353 2.3324 9.49893 5.37866L9.48333 8.63097L5.28002 8.64633L1.07671 8.66164L0.847557 8.78497C0.72149 8.85284 0.516762 9.02449 0.392581 9.16648C-0.0314189 9.6511 -0.00971367 9.30059 0.00705093 15.3962L0.0219836 20.8386L0.142167 21.062C0.307981 21.3702 0.635391 21.6745 0.965687 21.8273C1.23259 21.9508 1.30781 21.9565 2.9232 21.974L4.60316 21.9923L4.56597 23.3242L4.52883 24.6559L4.69975 24.828C4.82044 24.9494 4.92369 25 5.05081 25C5.18276 25 5.96742 24.5893 7.98595 23.4639L10.741 21.9278H14.0454C17.712 21.9278 17.6477 21.9337 18.0812 21.5603C18.2051 21.4537 18.3766 21.2225 18.4624 21.0466L18.6185 20.7269L18.6345 18.1435L18.6505 15.5601H19.0929H19.5355L21.6306 17.0482C22.7828 17.8666 23.8089 18.5717 23.9108 18.615C24.0547 18.6761 24.1371 18.6799 24.281 18.6321C24.6102 18.5228 24.6113 18.5179 24.6415 16.99L24.6693 15.588L25.7795 15.5601C26.6899 15.5372 26.9251 15.5144 27.0862 15.4336C27.4291 15.2617 27.6829 15.0089 27.8438 14.6792L28 14.3591V8.27063V2.18215L27.8509 1.89783C27.6766 1.56537 27.3858 1.29172 27.0314 1.12677L26.7787 1.00914L18.896 1.00076C14.5606 0.996121 10.9095 1.01327 10.7826 1.0388ZM26.7553 2.26163L26.9175 2.4249V8.2412C26.9175 14.6425 26.9357 14.3114 26.5778 14.4369C26.4687 14.4751 25.9201 14.4988 25.1404 14.4988H23.8795L23.74 14.6392C23.5521 14.8282 23.5313 14.9715 23.5313 16.0744C23.5313 16.5954 23.5111 17.0133 23.4865 17.003C23.4618 16.9928 22.6529 16.4257 21.6887 15.7429L19.9357 14.5013L15.4064 14.4861L10.8771 14.4708L10.7231 14.316L10.5693 14.1611L10.5528 8.5068C10.5437 5.39687 10.5519 2.74245 10.5711 2.60801C10.5921 2.46065 10.6582 2.31095 10.7377 2.23097L10.8695 2.09836H18.7312H26.593L26.7553 2.26163ZM14.0626 7.33988C13.7713 7.47701 13.5102 7.79819 13.4303 8.11753C13.2425 8.86803 13.915 9.61742 14.6737 9.50296C15.491 9.37963 15.9199 8.39899 15.4496 7.72904C15.1469 7.29793 14.5233 7.12292 14.0626 7.33988ZM18.5424 7.38378C17.9714 7.67005 17.7693 8.28543 18.0539 8.87049C18.5415 9.87241 19.9308 9.65344 20.1703 8.5369C20.2282 8.26661 20.0737 7.80059 19.8559 7.58839C19.4725 7.21509 19.0196 7.14448 18.5424 7.38378ZM23.111 7.33988C22.8198 7.47701 22.5587 7.79819 22.4787 8.11753C22.3376 8.68163 22.6741 9.27043 23.2481 9.46386C23.9879 9.7131 24.7619 9.05336 24.6842 8.2398C24.6139 7.5041 23.7779 7.02584 23.111 7.33988ZM9.48677 11.9752C9.48677 14.6183 9.48666 14.6177 9.95501 15.0889C10.4404 15.5773 10.2863 15.5601 14.1597 15.5601H17.536V18.0426V20.5251L17.4021 20.6819L17.2681 20.8386L13.7799 20.8665L10.2917 20.8945L7.99561 22.1932C6.73277 22.9075 5.68587 23.4918 5.66921 23.4918C5.65256 23.4918 5.65567 22.9869 5.67615 22.3698L5.7134 21.2478L5.52394 21.0572L5.33448 20.8665H3.41099C1.24103 20.8665 1.21149 20.8617 1.1038 20.4892C1.06161 20.3431 1.04834 18.7344 1.06 15.161C1.07643 10.1326 1.07865 10.0396 1.18773 9.91771C1.2488 9.84939 1.34872 9.77298 1.40978 9.74779C1.47085 9.72265 3.31312 9.70048 5.50379 9.69852L9.48677 9.695V11.9752Z" fill="#23509D" stroke="#23509D" stroke-width="0.3"/>
</svg>
