<svg width="78" height="78" viewBox="0 0 78 78" fill="none" xmlns="http://www.w3.org/2000/svg">
<path fill-rule="evenodd" clip-rule="evenodd" d="M39 9.75C22.8457 9.75 9.75 22.8457 9.75 39C9.75 55.1543 22.8457 68.25 39 68.25C55.1543 68.25 68.25 55.1543 68.25 39C68.25 22.8457 55.1543 9.75 39 9.75ZM3.25 39C3.25 19.2558 19.2558 3.25 39 3.25C58.7442 3.25 74.75 19.2558 74.75 39C74.75 58.7442 58.7442 74.75 39 74.75C19.2558 74.75 3.25 58.7442 3.25 39Z" fill="#FF1F48"/>
<path fill-rule="evenodd" clip-rule="evenodd" d="M39 22.75C40.7949 22.75 42.25 24.2051 42.25 26V39C42.25 40.7949 40.7949 42.25 39 42.25C37.2051 42.25 35.75 40.7949 35.75 39V26C35.75 24.2051 37.2051 22.75 39 22.75Z" fill="#FF1F48"/>
<path fill-rule="evenodd" clip-rule="evenodd" d="M35.75 52C35.75 50.2051 37.2051 48.75 39 48.75H39.0325C40.8274 48.75 42.2825 50.2051 42.2825 52C42.2825 53.7949 40.8274 55.25 39.0325 55.25H39C37.2051 55.25 35.75 53.7949 35.75 52Z" fill="#FF1F48"/>
</svg>
