<svg width="23" height="23" viewBox="0 0 23 23" fill="none" xmlns="http://www.w3.org/2000/svg">
<path fill-rule="evenodd" clip-rule="evenodd" d="M11.1913 22.3698C5.01915 22.3698 0.015625 17.3657 0.015625 11.1927C0.015625 5.01979 5.01915 0.015625 11.1913 0.015625C17.3635 0.015625 22.367 5.01979 22.367 11.1927C22.367 17.3657 17.3635 22.3698 11.1913 22.3698ZM11.1916 20.3377C16.2416 20.3377 20.3354 16.2434 20.3354 11.1928C20.3354 6.14217 16.2416 2.04785 11.1916 2.04785C6.14165 2.04785 2.04785 6.14217 2.04785 11.1928C2.04785 16.2434 6.14165 20.3377 11.1916 20.3377ZM16.2712 10.1766H12.2073V6.11223H10.1753V10.1766H6.11146V12.2088H10.1753V16.2732H12.2073V12.2088H16.2712V10.1766Z" fill="#23509D"/>
</svg>
