<svg width="20" height="20" viewBox="0 0 20 20" fill="none" xmlns="http://www.w3.org/2000/svg">
<path fill-rule="evenodd" clip-rule="evenodd" d="M11.3431 4.54368L12.7681 5.94702L6.44992 12.3628C6.13288 12.6863 6.13288 13.2071 6.44992 13.5307C6.75077 13.8378 7.25334 13.8364 7.55097 13.529L14.5024 6.46741C15.5172 5.43179 15.5172 3.76857 14.5024 2.73294C13.5341 1.74484 11.8209 1.76682 10.872 2.73482L3.28472 10.437C1.57172 12.1844 1.57172 14.9904 3.28472 16.7378C4.94813 18.4346 7.80562 18.407 9.44305 16.7362L18.2921 7.74899L19.7172 9.1522L10.8698 18.1378C8.4559 20.6008 4.31026 20.6409 1.85651 18.1379C-0.618878 15.6127 -0.618878 11.562 1.85822 9.03517L9.44551 1.33301C11.1689 -0.425057 14.1703 -0.463563 15.9309 1.33316C17.7077 3.14642 17.7077 6.05393 15.9293 7.86883L8.98204 14.9262C7.90737 16.0361 6.10952 16.0411 5.02132 14.9304C3.94242 13.8292 3.94242 12.0643 5.02312 10.9612L11.3431 4.54368Z" fill="#4F73B1"/>
</svg>
