<svg width="20" height="20" viewBox="0 0 20 20" fill="none" xmlns="http://www.w3.org/2000/svg">
<path d="M12.2586 10.0001L18.5857 3.6729C18.886 3.37314 19.0549 2.96637 19.0553 2.54208C19.0557 2.11779 18.8875 1.71072 18.5877 1.41044C18.288 1.11015 17.8812 0.941241 17.4569 0.940866C17.0326 0.940492 16.6256 1.10868 16.3253 1.40844L9.99811 7.7356L3.67094 1.40844C3.37066 1.10815 2.96338 0.939453 2.53871 0.939453C2.11405 0.939453 1.70677 1.10815 1.40648 1.40844C1.1062 1.70872 0.9375 2.116 0.9375 2.54067C0.9375 2.96534 1.1062 3.37261 1.40648 3.6729L7.73365 10.0001L1.40648 16.3272C1.1062 16.6275 0.9375 17.0348 0.9375 17.4595C0.9375 17.8841 1.1062 18.2914 1.40648 18.5917C1.70677 18.892 2.11405 19.0607 2.53871 19.0607C2.96338 19.0607 3.37066 18.892 3.67094 18.5917L9.99811 12.2645L16.3253 18.5917C16.6256 18.892 17.0328 19.0607 17.4575 19.0607C17.8822 19.0607 18.2894 18.892 18.5897 18.5917C18.89 18.2914 19.0587 17.8841 19.0587 17.4595C19.0587 17.0348 18.89 16.6275 18.5897 16.3272L12.2586 10.0001Z" fill="white"/>
</svg>
