<svg width="15" height="15" viewBox="0 0 15 15" fill="none" xmlns="http://www.w3.org/2000/svg">
<path fill-rule="evenodd" clip-rule="evenodd" d="M14.1526 0.717514C14.4084 0.973375 14.4084 1.38821 14.1526 1.64407L8.36161 7.43503L14.1526 13.226C14.4084 13.4818 14.4084 13.8967 14.1526 14.1525C13.8967 14.4084 13.4819 14.4084 13.226 14.1525L7.43506 8.36158L1.6441 14.1525C1.38824 14.4084 0.973405 14.4084 0.717544 14.1525C0.461684 13.8967 0.461684 13.4818 0.717544 13.226L6.5085 7.43503L0.717544 1.64407C0.461684 1.38821 0.461684 0.973375 0.717544 0.717514C0.973405 0.461654 1.38824 0.461654 1.6441 0.717514L7.43506 6.50848L13.226 0.717514C13.4819 0.461654 13.8967 0.461654 14.1526 0.717514Z" fill="#D3DCEB"/>
</svg>
