<svg width="19" height="19" viewBox="0 0 19 19" fill="none" xmlns="http://www.w3.org/2000/svg">
<path d="M11.6873 9.49878L17.8103 3.37573C18.1009 3.08564 18.2644 2.692 18.2648 2.28139C18.2651 1.87079 18.1024 1.47686 17.8123 1.18626C17.5222 0.895659 17.1285 0.732199 16.7179 0.731836C16.3073 0.731474 15.9134 0.894238 15.6228 1.18432L9.49975 7.30737L3.37671 1.18432C3.08611 0.893725 2.69197 0.730469 2.281 0.730469C1.87004 0.730469 1.4759 0.893725 1.1853 1.18432C0.894702 1.47492 0.731445 1.86906 0.731445 2.28003C0.731445 2.691 0.894702 3.08513 1.1853 3.37573L7.30835 9.49878L1.1853 15.6218C0.894702 15.9124 0.731445 16.3066 0.731445 16.7175C0.731445 17.1285 0.894702 17.5226 1.1853 17.8132C1.4759 18.1038 1.87004 18.2671 2.281 18.2671C2.69197 18.2671 3.08611 18.1038 3.37671 17.8132L9.49975 11.6902L15.6228 17.8132C15.9134 18.1038 16.3075 18.2671 16.7185 18.2671C17.1295 18.2671 17.5236 18.1038 17.8142 17.8132C18.1048 17.5226 18.2681 17.1285 18.2681 16.7175C18.2681 16.3066 18.1048 15.9124 17.8142 15.6218L11.6873 9.49878Z" fill="#878789"/>
</svg>
