<svg width="15" height="17" viewBox="0 0 15 17" fill="none" xmlns="http://www.w3.org/2000/svg">
<path fill-rule="evenodd" clip-rule="evenodd" d="M3.53513 0.776671C1.59805 1.20233 0.00884681 1.55101 0.00360641 1.55151C-0.00166803 1.55205 -0.0010896 3.33631 0.00489943 5.5166L0.0157546 9.48074L0.111239 9.86955C0.338073 10.7935 0.751283 11.6181 1.35454 12.351C1.62459 12.679 2.19706 13.2209 2.55738 13.4896C2.82832 13.6916 6.9974 16.263 7.09204 16.2864C7.12814 16.2953 10.8414 14.0489 11.3447 13.7137C12.1232 13.195 12.9084 12.3939 13.3643 11.6531C13.7024 11.1037 13.9461 10.5167 14.105 9.86955L14.2005 9.48074L14.2114 5.5192C14.2217 1.74368 14.2194 1.55685 14.1616 1.53975C14.0427 1.50448 7.11865 -0.00270111 7.08816 3.63601e-06C7.07107 0.00152505 5.47221 0.351012 3.53513 0.776671ZM10.106 1.7565C11.7043 2.11045 13.0394 2.40831 13.0727 2.41838C13.1304 2.43586 13.1328 2.60302 13.1226 5.90801C13.112 9.34375 13.1112 9.38212 13.0383 9.65303C12.7407 10.7586 12.1551 11.6742 11.2856 12.3932C10.8812 12.7276 10.6578 12.8729 8.75049 14.0422L7.10909 15.0485L5.99417 14.365C3.13114 12.6097 3.10256 12.5904 2.5483 12.0334C1.95852 11.4408 1.55534 10.8024 1.30959 10.072C1.08041 9.39094 1.08507 9.48 1.08507 5.77419C1.08507 3.93571 1.08888 2.43089 1.09358 2.43015C1.09827 2.42944 2.41899 2.13445 4.02854 1.77465C5.6381 1.41486 7.0101 1.11879 7.07747 1.11672C7.14481 1.11463 8.50766 1.40255 10.106 1.7565ZM8.05249 6.81812L5.81525 9.04095L4.86231 8.09463L3.90941 7.1483L3.51811 7.53708L3.12682 7.92585L4.47095 9.26101L5.81511 10.5962L8.45209 7.9764L11.089 5.35661L10.707 4.97596C10.4969 4.76661 10.317 4.5953 10.3073 4.5953C10.2977 4.5953 9.28297 5.59558 8.05249 6.81812Z" fill="#3DCE8F"/>
</svg>
