<svg width="20" height="22" viewBox="0 0 20 22" fill="none" xmlns="http://www.w3.org/2000/svg">
<path fill-rule="evenodd" clip-rule="evenodd" d="M3 1.75C2.30964 1.75 1.75 2.30964 1.75 3V19C1.75 19.6904 2.30964 20.25 3 20.25H17C17.6904 20.25 18.25 19.6904 18.25 19V7.31066L12.6893 1.75H3ZM0.25 3C0.25 1.48122 1.48122 0.25 3 0.25H12.7929C13.1244 0.25 13.4424 0.381696 13.6768 0.616117L19.3839 6.32322C19.6183 6.55764 19.75 6.87559 19.75 7.20711V19C19.75 20.5188 18.5188 21.75 17 21.75H3C1.48122 21.75 0.25 20.5188 0.25 19V3Z" fill="#23509D"/>
<path fill-rule="evenodd" clip-rule="evenodd" d="M12.25 1.24135C12.25 0.484083 13.1656 0.104842 13.701 0.640312L19.3596 6.29889C19.8951 6.83436 19.5159 7.74993 18.7586 7.74993H13.1C12.6306 7.74993 12.25 7.36937 12.25 6.89993V1.24135ZM13.75 2.81059V6.24993H17.1893L13.75 2.81059Z" fill="#23509D"/>
<path fill-rule="evenodd" clip-rule="evenodd" d="M5.25 11C5.25 10.5858 5.58579 10.25 6 10.25H14C14.4142 10.25 14.75 10.5858 14.75 11C14.75 11.4142 14.4142 11.75 14 11.75H6C5.58579 11.75 5.25 11.4142 5.25 11Z" fill="#23509D"/>
<path fill-rule="evenodd" clip-rule="evenodd" d="M5.25 15C5.25 14.5858 5.58579 14.25 6 14.25H14C14.4142 14.25 14.75 14.5858 14.75 15C14.75 15.4142 14.4142 15.75 14 15.75H6C5.58579 15.75 5.25 15.4142 5.25 15Z" fill="#23509D"/>
</svg>
