<svg width="24" height="15" viewBox="0 0 24 15" fill="none" xmlns="http://www.w3.org/2000/svg">
<mask id="path-1-outside-1_1121_154" maskUnits="userSpaceOnUse" x="0.0429688" y="-0.396484" width="24" height="15" fill="black">
<rect fill="white" x="0.0429688" y="-0.396484" width="24" height="15"/>
<path fill-rule="evenodd" clip-rule="evenodd" d="M11.6409 0.617794C11.2301 0.654399 10.7427 0.807922 10.3732 1.01702C10.0332 1.20941 9.46334 1.76024 9.26704 2.08626C8.6922 3.04087 8.68617 4.30847 9.25195 5.24194C9.45462 5.57627 9.85385 6.00534 10.1336 6.18953C10.2741 6.282 10.3268 6.33779 10.2867 6.3515C9.93426 6.47205 9.62651 6.5939 9.43325 6.68942C9.14901 6.82987 8.52809 7.22554 8.45289 7.31409C8.42288 7.34948 8.38261 7.3784 8.36338 7.3784C8.34418 7.3784 8.17994 7.27423 7.99843 7.14694C7.71274 6.94658 7.24024 6.6969 6.98319 6.61049C6.91629 6.58801 6.95237 6.53385 7.21848 6.25735C7.85433 5.59666 8.07281 4.81275 7.85411 3.97681C7.32061 1.93779 4.56926 1.46786 3.37589 3.21195C3.07887 3.64598 2.95995 4.03163 2.9608 4.55781C2.96191 5.27043 3.21986 5.86276 3.73374 6.33286L3.99617 6.57292L3.75511 6.66828C3.22738 6.87704 2.84333 7.13583 2.35997 7.60835C1.52654 8.42302 1.12988 9.29285 1.069 10.4393L1.04297 10.9303H3.698H6.35308L6.3291 11.4839C6.30088 12.1355 6.36547 12.5127 6.57755 12.9347C6.76299 13.3037 7.23152 13.7593 7.59912 13.9281C8.13732 14.1751 8.01955 14.1687 12.021 14.1687H15.6974L16.0018 14.0752C16.5647 13.9021 17.1266 13.4382 17.3891 12.93C17.5991 12.5233 17.6542 12.2045 17.6318 11.5257L17.6122 10.9303H20.2841H22.956L22.9313 10.4602C22.8846 9.57357 22.6431 8.88251 22.1214 8.14263C21.703 7.54918 20.9222 6.92798 20.289 6.6847L20.0073 6.57647L20.3123 6.2744C20.8068 5.7847 21.036 5.234 21.0354 4.53691C21.0345 3.50382 20.3578 2.59756 19.3311 2.25416C18.9034 2.11112 18.2876 2.09374 17.8776 2.21316C17.0184 2.46338 16.326 3.17091 16.1251 4.00397C15.9296 4.81421 16.1653 5.62754 16.7774 6.25551L17.0881 6.57422L16.8515 6.66807C16.5618 6.78303 16.1022 7.04799 15.8563 7.24188C15.7556 7.32132 15.6493 7.37731 15.6201 7.36637C15.5909 7.35542 15.4209 7.24397 15.2423 7.1187C14.8678 6.85603 14.2638 6.5443 13.9234 6.43787C13.794 6.39746 13.6723 6.35546 13.6528 6.3446C13.6334 6.33369 13.7119 6.26262 13.8274 6.18661C14.1032 6.00504 14.5031 5.57439 14.7046 5.24194C15.2654 4.31682 15.2647 3.05988 14.7029 2.11129C14.498 1.76529 13.9374 1.21731 13.5834 1.01702C13.0163 0.696102 12.3344 0.555949 11.6409 0.617794ZM12.5669 1.34317C13.4503 1.56693 14.166 2.27221 14.3706 3.12047C14.6563 4.30504 13.9827 5.51409 12.7905 5.95686C12.4387 6.08753 11.7854 6.11941 11.4009 6.02464C10.9217 5.90655 10.5995 5.72562 10.247 5.37666C9.72531 4.86026 9.51118 4.36676 9.51413 3.68785C9.5172 2.98179 9.72582 2.49589 10.2455 1.98434C10.5902 1.64507 10.9531 1.43635 11.3701 1.33761C11.6852 1.26294 12.2608 1.26561 12.5669 1.34317ZM5.92935 2.87498C6.96648 3.17776 7.51067 4.32238 7.06741 5.26872C6.7267 5.99627 5.94474 6.41873 5.16586 6.29613C4.18683 6.14202 3.49755 5.23199 3.65525 4.3017C3.83458 3.24379 4.90103 2.5747 5.92935 2.87498ZM19.0532 2.87498C20.0883 3.17718 20.6336 4.32426 20.1912 5.26872C19.85 5.99744 19.0687 6.41877 18.2869 6.29567C17.4983 6.17156 16.9117 5.59591 16.7796 4.8168C16.6664 4.14905 16.9928 3.4551 17.5989 3.07493C18.0157 2.81347 18.5779 2.73616 19.0532 2.87498ZM12.8677 6.85582C13.3396 6.94407 13.791 7.10027 14.2635 7.33887C15.4944 7.96032 16.4029 9.06858 16.7647 10.3901C16.8803 10.8122 16.9785 11.7217 16.9379 11.9935C16.8375 12.6652 16.5332 13.0948 15.9773 13.3497L15.7402 13.4583H11.9783H8.21641L7.94786 13.3371C7.60544 13.1826 7.25845 12.8266 7.1205 12.4883C7.03244 12.2724 7.02239 12.1818 7.02641 11.6406C7.02936 11.2474 7.05634 10.9174 7.10323 10.7004C7.5335 8.71076 9.04069 7.25296 11.0806 6.85356C11.4565 6.77997 12.469 6.78123 12.8677 6.85582ZM6.37723 7.12814C6.76671 7.23006 7.20053 7.43205 7.56158 7.6796C7.69838 7.77341 7.81029 7.85585 7.81029 7.86283C7.81029 7.86981 7.71766 7.9846 7.60446 8.11794C7.16526 8.63526 6.84883 9.19248 6.61252 9.8647L6.49505 10.199L4.13288 10.2098L1.77072 10.2206L1.79616 10.011C1.81009 9.89566 1.87832 9.64035 1.9477 9.44357C2.36912 8.24848 3.40188 7.35851 4.68964 7.0808C5.1618 6.97896 5.88472 6.99923 6.37723 7.12814ZM19.539 7.1469C20.575 7.44363 21.386 8.1001 21.864 9.02897C22.0114 9.31537 22.149 9.7314 22.1922 10.0214L22.2218 10.2199H19.8334H17.4449L17.3918 10.0176C17.2597 9.51361 16.8123 8.69689 16.378 8.167L16.151 7.89003L16.2449 7.80579C16.5886 7.49699 17.3072 7.17323 17.8876 7.06563C18.3733 6.97558 19.0584 7.0093 19.539 7.1469Z"/>
</mask>
<path fill-rule="evenodd" clip-rule="evenodd" d="M11.6409 0.617794C11.2301 0.654399 10.7427 0.807922 10.3732 1.01702C10.0332 1.20941 9.46334 1.76024 9.26704 2.08626C8.6922 3.04087 8.68617 4.30847 9.25195 5.24194C9.45462 5.57627 9.85385 6.00534 10.1336 6.18953C10.2741 6.282 10.3268 6.33779 10.2867 6.3515C9.93426 6.47205 9.62651 6.5939 9.43325 6.68942C9.14901 6.82987 8.52809 7.22554 8.45289 7.31409C8.42288 7.34948 8.38261 7.3784 8.36338 7.3784C8.34418 7.3784 8.17994 7.27423 7.99843 7.14694C7.71274 6.94658 7.24024 6.6969 6.98319 6.61049C6.91629 6.58801 6.95237 6.53385 7.21848 6.25735C7.85433 5.59666 8.07281 4.81275 7.85411 3.97681C7.32061 1.93779 4.56926 1.46786 3.37589 3.21195C3.07887 3.64598 2.95995 4.03163 2.9608 4.55781C2.96191 5.27043 3.21986 5.86276 3.73374 6.33286L3.99617 6.57292L3.75511 6.66828C3.22738 6.87704 2.84333 7.13583 2.35997 7.60835C1.52654 8.42302 1.12988 9.29285 1.069 10.4393L1.04297 10.9303H3.698H6.35308L6.3291 11.4839C6.30088 12.1355 6.36547 12.5127 6.57755 12.9347C6.76299 13.3037 7.23152 13.7593 7.59912 13.9281C8.13732 14.1751 8.01955 14.1687 12.021 14.1687H15.6974L16.0018 14.0752C16.5647 13.9021 17.1266 13.4382 17.3891 12.93C17.5991 12.5233 17.6542 12.2045 17.6318 11.5257L17.6122 10.9303H20.2841H22.956L22.9313 10.4602C22.8846 9.57357 22.6431 8.88251 22.1214 8.14263C21.703 7.54918 20.9222 6.92798 20.289 6.6847L20.0073 6.57647L20.3123 6.2744C20.8068 5.7847 21.036 5.234 21.0354 4.53691C21.0345 3.50382 20.3578 2.59756 19.3311 2.25416C18.9034 2.11112 18.2876 2.09374 17.8776 2.21316C17.0184 2.46338 16.326 3.17091 16.1251 4.00397C15.9296 4.81421 16.1653 5.62754 16.7774 6.25551L17.0881 6.57422L16.8515 6.66807C16.5618 6.78303 16.1022 7.04799 15.8563 7.24188C15.7556 7.32132 15.6493 7.37731 15.6201 7.36637C15.5909 7.35542 15.4209 7.24397 15.2423 7.1187C14.8678 6.85603 14.2638 6.5443 13.9234 6.43787C13.794 6.39746 13.6723 6.35546 13.6528 6.3446C13.6334 6.33369 13.7119 6.26262 13.8274 6.18661C14.1032 6.00504 14.5031 5.57439 14.7046 5.24194C15.2654 4.31682 15.2647 3.05988 14.7029 2.11129C14.498 1.76529 13.9374 1.21731 13.5834 1.01702C13.0163 0.696102 12.3344 0.555949 11.6409 0.617794ZM12.5669 1.34317C13.4503 1.56693 14.166 2.27221 14.3706 3.12047C14.6563 4.30504 13.9827 5.51409 12.7905 5.95686C12.4387 6.08753 11.7854 6.11941 11.4009 6.02464C10.9217 5.90655 10.5995 5.72562 10.247 5.37666C9.72531 4.86026 9.51118 4.36676 9.51413 3.68785C9.5172 2.98179 9.72582 2.49589 10.2455 1.98434C10.5902 1.64507 10.9531 1.43635 11.3701 1.33761C11.6852 1.26294 12.2608 1.26561 12.5669 1.34317ZM5.92935 2.87498C6.96648 3.17776 7.51067 4.32238 7.06741 5.26872C6.7267 5.99627 5.94474 6.41873 5.16586 6.29613C4.18683 6.14202 3.49755 5.23199 3.65525 4.3017C3.83458 3.24379 4.90103 2.5747 5.92935 2.87498ZM19.0532 2.87498C20.0883 3.17718 20.6336 4.32426 20.1912 5.26872C19.85 5.99744 19.0687 6.41877 18.2869 6.29567C17.4983 6.17156 16.9117 5.59591 16.7796 4.8168C16.6664 4.14905 16.9928 3.4551 17.5989 3.07493C18.0157 2.81347 18.5779 2.73616 19.0532 2.87498ZM12.8677 6.85582C13.3396 6.94407 13.791 7.10027 14.2635 7.33887C15.4944 7.96032 16.4029 9.06858 16.7647 10.3901C16.8803 10.8122 16.9785 11.7217 16.9379 11.9935C16.8375 12.6652 16.5332 13.0948 15.9773 13.3497L15.7402 13.4583H11.9783H8.21641L7.94786 13.3371C7.60544 13.1826 7.25845 12.8266 7.1205 12.4883C7.03244 12.2724 7.02239 12.1818 7.02641 11.6406C7.02936 11.2474 7.05634 10.9174 7.10323 10.7004C7.5335 8.71076 9.04069 7.25296 11.0806 6.85356C11.4565 6.77997 12.469 6.78123 12.8677 6.85582ZM6.37723 7.12814C6.76671 7.23006 7.20053 7.43205 7.56158 7.6796C7.69838 7.77341 7.81029 7.85585 7.81029 7.86283C7.81029 7.86981 7.71766 7.9846 7.60446 8.11794C7.16526 8.63526 6.84883 9.19248 6.61252 9.8647L6.49505 10.199L4.13288 10.2098L1.77072 10.2206L1.79616 10.011C1.81009 9.89566 1.87832 9.64035 1.9477 9.44357C2.36912 8.24848 3.40188 7.35851 4.68964 7.0808C5.1618 6.97896 5.88472 6.99923 6.37723 7.12814ZM19.539 7.1469C20.575 7.44363 21.386 8.1001 21.864 9.02897C22.0114 9.31537 22.149 9.7314 22.1922 10.0214L22.2218 10.2199H19.8334H17.4449L17.3918 10.0176C17.2597 9.51361 16.8123 8.69689 16.378 8.167L16.151 7.89003L16.2449 7.80579C16.5886 7.49699 17.3072 7.17323 17.8876 7.06563C18.3733 6.97558 19.0584 7.0093 19.539 7.1469Z" fill="#23509D"/>
<path fill-rule="evenodd" clip-rule="evenodd" d="M11.6409 0.617794C11.2301 0.654399 10.7427 0.807922 10.3732 1.01702C10.0332 1.20941 9.46334 1.76024 9.26704 2.08626C8.6922 3.04087 8.68617 4.30847 9.25195 5.24194C9.45462 5.57627 9.85385 6.00534 10.1336 6.18953C10.2741 6.282 10.3268 6.33779 10.2867 6.3515C9.93426 6.47205 9.62651 6.5939 9.43325 6.68942C9.14901 6.82987 8.52809 7.22554 8.45289 7.31409C8.42288 7.34948 8.38261 7.3784 8.36338 7.3784C8.34418 7.3784 8.17994 7.27423 7.99843 7.14694C7.71274 6.94658 7.24024 6.6969 6.98319 6.61049C6.91629 6.58801 6.95237 6.53385 7.21848 6.25735C7.85433 5.59666 8.07281 4.81275 7.85411 3.97681C7.32061 1.93779 4.56926 1.46786 3.37589 3.21195C3.07887 3.64598 2.95995 4.03163 2.9608 4.55781C2.96191 5.27043 3.21986 5.86276 3.73374 6.33286L3.99617 6.57292L3.75511 6.66828C3.22738 6.87704 2.84333 7.13583 2.35997 7.60835C1.52654 8.42302 1.12988 9.29285 1.069 10.4393L1.04297 10.9303H3.698H6.35308L6.3291 11.4839C6.30088 12.1355 6.36547 12.5127 6.57755 12.9347C6.76299 13.3037 7.23152 13.7593 7.59912 13.9281C8.13732 14.1751 8.01955 14.1687 12.021 14.1687H15.6974L16.0018 14.0752C16.5647 13.9021 17.1266 13.4382 17.3891 12.93C17.5991 12.5233 17.6542 12.2045 17.6318 11.5257L17.6122 10.9303H20.2841H22.956L22.9313 10.4602C22.8846 9.57357 22.6431 8.88251 22.1214 8.14263C21.703 7.54918 20.9222 6.92798 20.289 6.6847L20.0073 6.57647L20.3123 6.2744C20.8068 5.7847 21.036 5.234 21.0354 4.53691C21.0345 3.50382 20.3578 2.59756 19.3311 2.25416C18.9034 2.11112 18.2876 2.09374 17.8776 2.21316C17.0184 2.46338 16.326 3.17091 16.1251 4.00397C15.9296 4.81421 16.1653 5.62754 16.7774 6.25551L17.0881 6.57422L16.8515 6.66807C16.5618 6.78303 16.1022 7.04799 15.8563 7.24188C15.7556 7.32132 15.6493 7.37731 15.6201 7.36637C15.5909 7.35542 15.4209 7.24397 15.2423 7.1187C14.8678 6.85603 14.2638 6.5443 13.9234 6.43787C13.794 6.39746 13.6723 6.35546 13.6528 6.3446C13.6334 6.33369 13.7119 6.26262 13.8274 6.18661C14.1032 6.00504 14.5031 5.57439 14.7046 5.24194C15.2654 4.31682 15.2647 3.05988 14.7029 2.11129C14.498 1.76529 13.9374 1.21731 13.5834 1.01702C13.0163 0.696102 12.3344 0.555949 11.6409 0.617794ZM12.5669 1.34317C13.4503 1.56693 14.166 2.27221 14.3706 3.12047C14.6563 4.30504 13.9827 5.51409 12.7905 5.95686C12.4387 6.08753 11.7854 6.11941 11.4009 6.02464C10.9217 5.90655 10.5995 5.72562 10.247 5.37666C9.72531 4.86026 9.51118 4.36676 9.51413 3.68785C9.5172 2.98179 9.72582 2.49589 10.2455 1.98434C10.5902 1.64507 10.9531 1.43635 11.3701 1.33761C11.6852 1.26294 12.2608 1.26561 12.5669 1.34317ZM5.92935 2.87498C6.96648 3.17776 7.51067 4.32238 7.06741 5.26872C6.7267 5.99627 5.94474 6.41873 5.16586 6.29613C4.18683 6.14202 3.49755 5.23199 3.65525 4.3017C3.83458 3.24379 4.90103 2.5747 5.92935 2.87498ZM19.0532 2.87498C20.0883 3.17718 20.6336 4.32426 20.1912 5.26872C19.85 5.99744 19.0687 6.41877 18.2869 6.29567C17.4983 6.17156 16.9117 5.59591 16.7796 4.8168C16.6664 4.14905 16.9928 3.4551 17.5989 3.07493C18.0157 2.81347 18.5779 2.73616 19.0532 2.87498ZM12.8677 6.85582C13.3396 6.94407 13.791 7.10027 14.2635 7.33887C15.4944 7.96032 16.4029 9.06858 16.7647 10.3901C16.8803 10.8122 16.9785 11.7217 16.9379 11.9935C16.8375 12.6652 16.5332 13.0948 15.9773 13.3497L15.7402 13.4583H11.9783H8.21641L7.94786 13.3371C7.60544 13.1826 7.25845 12.8266 7.1205 12.4883C7.03244 12.2724 7.02239 12.1818 7.02641 11.6406C7.02936 11.2474 7.05634 10.9174 7.10323 10.7004C7.5335 8.71076 9.04069 7.25296 11.0806 6.85356C11.4565 6.77997 12.469 6.78123 12.8677 6.85582ZM6.37723 7.12814C6.76671 7.23006 7.20053 7.43205 7.56158 7.6796C7.69838 7.77341 7.81029 7.85585 7.81029 7.86283C7.81029 7.86981 7.71766 7.9846 7.60446 8.11794C7.16526 8.63526 6.84883 9.19248 6.61252 9.8647L6.49505 10.199L4.13288 10.2098L1.77072 10.2206L1.79616 10.011C1.81009 9.89566 1.87832 9.64035 1.9477 9.44357C2.36912 8.24848 3.40188 7.35851 4.68964 7.0808C5.1618 6.97896 5.88472 6.99923 6.37723 7.12814ZM19.539 7.1469C20.575 7.44363 21.386 8.1001 21.864 9.02897C22.0114 9.31537 22.149 9.7314 22.1922 10.0214L22.2218 10.2199H19.8334H17.4449L17.3918 10.0176C17.2597 9.51361 16.8123 8.69689 16.378 8.167L16.151 7.89003L16.2449 7.80579C16.5886 7.49699 17.3072 7.17323 17.8876 7.06563C18.3733 6.97558 19.0584 7.0093 19.539 7.1469Z" stroke="#23509D" stroke-width="0.8" mask="url(#path-1-outside-1_1121_154)"/>
</svg>
