<svg width="28" height="28" viewBox="0 0 28 28" fill="none" xmlns="http://www.w3.org/2000/svg">
<path fill-rule="evenodd" clip-rule="evenodd" d="M8.4186 7.13926C7.64797 7.13926 7.02325 7.76398 7.02325 8.53461C7.02325 9.30524 7.64797 9.92996 8.4186 9.92996C9.18923 9.92996 9.81395 9.30524 9.81395 8.53461C9.81395 7.76398 9.18923 7.13926 8.4186 7.13926ZM5.34883 8.53461C5.34883 6.83923 6.72321 5.46484 8.4186 5.46484C10.114 5.46484 11.4884 6.83923 11.4884 8.53461C11.4884 10.23 10.114 11.6044 8.4186 11.6044C6.72321 11.6044 5.34883 10.23 5.34883 8.53461Z" fill="#23509D"/>
<path fill-rule="evenodd" clip-rule="evenodd" d="M3.27406 15.7203C4.26649 14.342 5.91318 13.2793 8.4186 13.2793C10.924 13.2793 12.5707 14.342 13.5631 15.7203C14.5248 17.056 14.8372 18.6337 14.8372 19.6979C14.8372 20.1603 14.4624 20.5351 14 20.5351H2.83721C2.37483 20.5351 2 20.1603 2 19.6979C2 18.6337 2.31237 17.056 3.27406 15.7203ZM3.75109 18.8607H13.0861C12.9667 18.1744 12.6971 17.3832 12.2043 16.6987C11.5223 15.7515 10.3783 14.9537 8.4186 14.9537C6.45891 14.9537 5.31491 15.7515 4.63291 16.6987C4.14008 17.3832 3.87051 18.1744 3.75109 18.8607Z" fill="#23509D"/>
<path fill-rule="evenodd" clip-rule="evenodd" d="M18.4651 7.13926C17.6945 7.13926 17.0698 7.76398 17.0698 8.53461C17.0698 9.30524 17.6945 9.92996 18.4651 9.92996C19.2358 9.92996 19.8605 9.30524 19.8605 8.53461C19.8605 7.76398 19.2358 7.13926 18.4651 7.13926ZM15.3954 8.53461C15.3954 6.83923 16.7697 5.46484 18.4651 5.46484C20.1605 5.46484 21.5349 6.83923 21.5349 8.53461C21.5349 10.23 20.1605 11.6044 18.4651 11.6044C16.7697 11.6044 15.3954 10.23 15.3954 8.53461Z" fill="#23509D"/>
<path fill-rule="evenodd" clip-rule="evenodd" d="M16.5565 13.3427C16.9166 13.2967 17.3659 13.2793 17.9079 13.2793C20.5628 13.2793 22.5812 14.303 23.9348 15.6065C25.2537 16.8766 25.9999 18.4764 25.9999 19.6979C25.9999 20.1603 25.6251 20.5351 25.1627 20.5351H17.2811C16.8187 20.5351 16.4439 20.1603 16.4439 19.6979C16.4438 18.0377 15.9039 16.9407 15.4813 16.0821C15.3933 15.9034 15.3105 15.735 15.2386 15.5741C15.1428 15.3596 15.0184 15.0542 15.0079 14.7326C15.002 14.5534 15.0299 14.3467 15.1312 14.1413C15.2335 13.934 15.3854 13.779 15.5503 13.6674C15.8488 13.4654 16.22 13.3857 16.5565 13.3427ZM18.0782 18.8607C17.9193 17.2115 17.3239 16.0182 16.9587 15.2864C16.9059 15.1805 16.8579 15.0843 16.8168 14.9978C17.0685 14.9691 17.4208 14.9537 17.9079 14.9537C20.1028 14.9537 21.7119 15.7904 22.7733 16.8126C23.4884 17.5013 23.9312 18.2476 24.1526 18.8607H18.0782Z" fill="#23509D"/>
</svg>
