<svg width="19" height="22" viewBox="0 0 19 22" fill="none" xmlns="http://www.w3.org/2000/svg">
<path fill-rule="evenodd" clip-rule="evenodd" d="M2.24403 0.0670096C2.06762 0.145303 1.88442 0.316844 1.78942 0.492682C1.7263 0.609435 1.71866 0.962186 1.70814 4.23685L1.69652 7.8521L1.30969 7.87101C0.83788 7.89404 0.556197 8.00701 0.322203 8.26712C-0.0163534 8.64342 0.000129781 8.43522 0.000129781 12.3312C0.000129781 15.7739 0.000549157 15.7914 0.0897599 15.989C0.31503 16.4882 0.676948 16.7134 1.3091 16.7478L1.69538 16.7688L1.70755 19.0727C1.72093 21.6007 1.70965 21.4891 1.97816 21.7504C2.25233 22.0172 1.72571 21.9998 9.5 21.9998C17.2743 21.9998 16.7477 22.0172 17.0218 21.7504C17.2904 21.4891 17.2791 21.6007 17.2924 19.0727L17.3046 16.7688L17.6909 16.7478C18.323 16.7134 18.685 16.4882 18.9102 15.989C18.9995 15.7914 18.9999 15.7739 18.9999 12.3312C18.9999 8.43522 19.0164 8.64342 18.6778 8.26712C18.4436 8.0068 18.1622 7.89404 17.6892 7.87092L17.3012 7.85197L17.297 6.55725C17.2947 5.84513 17.2798 5.21414 17.2638 5.15506C17.2291 5.02675 13.0932 0.169324 12.9328 0.0684706C12.8315 0.00478732 12.353 -0.00131458 7.60615 0.000189407C3.0408 0.00165043 2.37254 0.00998684 2.24403 0.0670096ZM12.3101 3.13472V5.41151L12.4325 5.55185L12.5548 5.6922L14.5086 5.70419L16.4624 5.71618V6.78921V7.86224H9.5H2.53762V4.36009V0.857938H7.42387H12.3101V3.13472ZM12.4922 9.70334C12.65 9.74911 12.7975 9.80544 12.82 9.82852C12.8467 9.85585 12.8218 10.0189 12.7487 10.2951C12.6869 10.5287 12.6311 10.7258 12.6245 10.7332C12.6179 10.7405 12.4737 10.7025 12.3041 10.6486C11.8645 10.5091 11.3031 10.5081 11.086 10.6464C10.8709 10.7835 10.808 10.9851 10.9122 11.2031C10.9973 11.3812 11.1583 11.4772 11.9332 11.8125C12.313 11.9769 12.4112 12.0418 12.6527 12.288C12.8855 12.5254 12.9444 12.6153 13.0038 12.825C13.1607 13.3778 13.0034 13.9528 12.5911 14.3332C12.1829 14.71 11.7184 14.8421 10.9051 14.8124C10.4542 14.7961 10.2999 14.772 10.0138 14.6735C9.78961 14.5963 9.66777 14.5321 9.66777 14.4911C9.66777 14.4345 9.71307 14.2362 9.83918 13.7406L9.87966 13.5814L10.0774 13.6683C10.5363 13.8698 11.2788 13.9451 11.567 13.8193C11.7767 13.7277 11.9007 13.564 11.9056 13.3722C11.9132 13.0759 11.7192 12.8848 11.1987 12.6757C10.2754 12.3049 9.86666 11.9376 9.75392 11.3774C9.59215 10.5732 10.1407 9.83763 11.0474 9.64275C11.4125 9.56429 12.1142 9.59372 12.4922 9.70334ZM2.80005 10.2794C2.95352 10.6162 3.13505 11.0174 3.20349 11.171L3.32794 11.4503L3.4361 11.202C3.49558 11.0654 3.54423 10.9431 3.54423 10.93C3.54423 10.917 3.66922 10.6275 3.82193 10.2867L4.09963 9.66703H4.74562H5.39161L5.33235 9.76372C5.13652 10.0831 4.00559 12.1201 4.00559 12.1533C4.00559 12.1755 4.32645 12.7611 4.71861 13.4548C5.11077 14.1485 5.43162 14.7305 5.43162 14.7483C5.43162 14.7661 5.1486 14.7806 4.80266 14.7806H4.17374L3.71535 13.846C3.27001 12.938 3.25567 12.9151 3.21121 13.0409C3.18605 13.1121 3.00653 13.5279 2.8123 13.9648L2.45915 14.7591L1.82729 14.771C1.4798 14.7775 1.19552 14.7678 1.19556 14.7495C1.1956 14.7311 1.50941 14.1554 1.89289 13.47C2.27641 12.7846 2.59001 12.2045 2.5898 12.1808C2.58959 12.1572 2.28522 11.5892 1.91344 10.9186C1.54163 10.2479 1.23742 9.692 1.23742 9.68315C1.23742 9.6743 1.52623 9.66703 1.87926 9.66703H2.5211L2.80005 10.2794ZM7.19319 11.7296V13.7923H8.17883H9.16446V14.2864V14.7806H7.61261H6.06075V12.2238V9.66703H6.62697H7.19319V11.7296ZM15.0063 10.086C15.112 10.3165 15.2954 10.7175 15.4137 10.9773L15.6289 11.4496L15.8509 10.9128C15.9729 10.6176 16.1443 10.2165 16.2317 10.0215L16.3905 9.66703H17.0371C17.3927 9.66703 17.675 9.68156 17.6644 9.69926C17.4749 10.0161 16.2946 12.1313 16.2946 12.1539C16.2946 12.1712 16.6155 12.7521 17.0076 13.4447C17.3998 14.1374 17.7206 14.7213 17.7206 14.7424C17.7206 14.7634 17.4376 14.7806 17.0917 14.7806H16.4628L16.005 13.846C15.6467 13.1144 15.5405 12.93 15.5161 12.9973C15.4819 13.0912 15.0796 14.0278 14.8747 14.4905L14.7463 14.7806H14.1109C13.5841 14.7806 13.4794 14.7703 13.498 14.7206C13.5104 14.6876 13.8269 14.1123 14.2013 13.4422C14.5758 12.7721 14.8819 12.2045 14.8816 12.1808C14.8814 12.1572 14.5979 11.6254 14.2518 10.9991C13.9056 10.3728 13.6002 9.81692 13.5729 9.76372L13.5235 9.66703H14.1687H14.814L15.0063 10.086ZM16.4624 18.8199V20.8825H9.5H2.53762V18.8199V16.7573H9.5H16.4624V18.8199Z" fill="#A4A4A7"/>
</svg>
