<svg width="20" height="21" viewBox="0 0 20 21" fill="none" xmlns="http://www.w3.org/2000/svg">
<path fill-rule="evenodd" clip-rule="evenodd" d="M2.98661 0.837884C2.81747 0.907479 2.64181 1.05996 2.55072 1.21626C2.49019 1.32004 2.48287 1.6336 2.47278 4.54441L2.46164 7.75797L2.09073 7.77477C1.63835 7.79525 1.36826 7.89566 1.1439 8.12687C0.819281 8.46136 0.835085 8.27629 0.835085 11.7394C0.835085 14.7996 0.835487 14.8151 0.921026 14.9908C1.13702 15.4345 1.48404 15.6346 2.09017 15.6652L2.46055 15.6839L2.47222 17.7319C2.48505 19.979 2.47423 19.8797 2.73169 20.112C2.99458 20.3492 2.48963 20.3337 9.94389 20.3337C17.3981 20.3337 16.8932 20.3492 17.1561 20.112C17.4135 19.8797 17.4027 19.979 17.4156 17.7319L17.4272 15.6839L17.7976 15.6652C18.4037 15.6346 18.7507 15.4345 18.9667 14.9908C19.0523 14.8151 19.0527 14.7996 19.0527 11.7394C19.0527 8.27629 19.0685 8.46136 18.7439 8.12687C18.5193 7.89547 18.2495 7.79525 17.796 7.7747L17.424 7.75785L17.4199 6.60699C17.4177 5.97399 17.4034 5.41311 17.3881 5.36059C17.3548 5.24654 13.3891 0.928831 13.2354 0.839183C13.1382 0.782576 12.6795 0.777152 8.128 0.778489C3.75059 0.779787 3.10983 0.787198 2.98661 0.837884ZM12.6383 3.56474V5.58855L12.7556 5.7133L12.873 5.83805L14.7463 5.84871L16.6197 5.85936V6.81317V7.76698H9.94389H3.26812V4.65396V1.54093H7.95322H12.6383V3.56474ZM12.8129 9.40351C12.9642 9.44419 13.1057 9.49427 13.1273 9.51478C13.1528 9.53907 13.1289 9.68399 13.0589 9.92956C12.9996 10.1372 12.9461 10.3124 12.9397 10.3189C12.9335 10.3255 12.7952 10.2916 12.6325 10.2438C12.2111 10.1197 11.6728 10.1189 11.4646 10.2418C11.2584 10.3636 11.198 10.5428 11.2979 10.7367C11.3795 10.8949 11.5339 10.9803 12.2769 11.2784C12.6411 11.4245 12.7352 11.4821 12.9668 11.701C13.19 11.912 13.2465 11.9919 13.3035 12.1783C13.4539 12.6697 13.303 13.1808 12.9078 13.519C12.5163 13.8539 12.071 13.9713 11.2911 13.9449C10.8588 13.9304 10.7109 13.909 10.4365 13.8214C10.2216 13.7528 10.1047 13.6957 10.1047 13.6593C10.1047 13.609 10.1482 13.4327 10.2691 12.9922L10.3079 12.8507L10.4975 12.9279C10.9376 13.1071 11.6495 13.1739 11.9258 13.0621C12.1269 12.9807 12.2457 12.8353 12.2504 12.6647C12.2577 12.4014 12.0717 12.2315 11.5726 12.0457C10.6874 11.7161 10.2955 11.3895 10.1874 10.8915C10.0322 10.1767 10.5582 9.52288 11.4276 9.34966C11.7777 9.27991 12.4505 9.30608 12.8129 9.40351ZM3.51975 9.91554C3.6669 10.2149 3.84095 10.5716 3.90658 10.7081L4.0259 10.9564L4.12962 10.7357C4.18664 10.6143 4.23329 10.5055 4.23329 10.4939C4.23329 10.4823 4.35313 10.225 4.49956 9.92207L4.76582 9.37124H5.38522H6.00462L5.9478 9.45718C5.76003 9.7411 4.67566 11.5517 4.67566 11.5813C4.67566 11.601 4.98331 12.1215 5.35932 12.7382C5.73534 13.3547 6.04299 13.8721 6.04299 13.8879C6.04299 13.9037 5.77161 13.9166 5.43992 13.9166H4.83689L4.39737 13.0859C3.97036 12.2787 3.95661 12.2584 3.91398 12.3702C3.88985 12.4335 3.71773 12.8031 3.53149 13.1914L3.19288 13.8975L2.58703 13.9081C2.25385 13.9139 1.98127 13.9053 1.98131 13.889C1.98135 13.8727 2.28224 13.3609 2.64993 12.7516C3.01766 12.1424 3.31835 11.6267 3.31815 11.6057C3.31795 11.5847 3.0261 11.0798 2.66963 10.4837C2.31312 9.88758 2.02144 9.39343 2.02144 9.38556C2.02144 9.37769 2.29837 9.37124 2.63686 9.37124H3.25228L3.51975 9.91554ZM7.73204 11.2047V13.0381H8.6771H9.62216V13.4774V13.9166H8.13419H6.64622V11.6439V9.37124H7.18913H7.73204V11.2047ZM15.2235 9.74366C15.3249 9.9485 15.5007 10.305 15.6142 10.5359L15.8205 10.9557L16.0333 10.4786C16.1503 10.2162 16.3147 9.85966 16.3984 9.68636L16.5508 9.37124H17.1707C17.5117 9.37124 17.7823 9.38415 17.7722 9.39989C17.5905 9.68151 16.4588 11.5617 16.4588 11.5818C16.4588 11.5971 16.7664 12.1135 17.1425 12.7292C17.5185 13.3449 17.8261 13.864 17.8261 13.8826C17.8261 13.9014 17.5547 13.9166 17.223 13.9166H16.62L16.1811 13.0859C15.8376 12.4356 15.7358 12.2717 15.7123 12.3315C15.6795 12.4149 15.2938 13.2475 15.0973 13.6588L14.9742 13.9166H14.365C13.8599 13.9166 13.7594 13.9075 13.7773 13.8633C13.7892 13.8339 14.0926 13.3226 14.4517 12.7269C14.8107 12.1313 15.1043 11.6267 15.104 11.6057C15.1037 11.5847 14.832 11.112 14.5001 10.5553C14.1682 9.99862 13.8753 9.50447 13.8492 9.45718L13.8018 9.37124H14.4204H15.0391L15.2235 9.74366ZM16.6197 17.5071V19.3406H9.94389H3.26812V17.5071V15.6737H9.94389H16.6197V17.5071Z" fill="#23509D"/>
</svg>
