<svg width="46" height="60" viewBox="0 0 46 60" fill="none" xmlns="http://www.w3.org/2000/svg">
<path fill-rule="evenodd" clip-rule="evenodd" d="M0.631789 0.227265C0.379061 0.380318 0.214706 0.601225 0.131054 0.90065C-0.0436846 1.52564 -0.0436846 58.4737 0.131054 59.0987C0.214706 59.3981 0.379061 59.619 0.631789 59.7721C1.00085 59.9957 1.42608 60 23.0126 60C44.6238 60 45.0238 59.9959 45.3945 59.7714C45.6565 59.6127 45.8107 59.4001 45.8983 59.0766C45.9863 58.752 46.015 52.6994 45.9928 39.1194L45.961 19.6282L45.5793 18.6172C43.3677 12.759 32.8256 2.33414 27.1421 0.385005L26.0212 0.000615639L13.5146 2.96792e-05C1.33464 -0.000556281 0.998255 0.00530332 0.631789 0.227265ZM26.3457 2.5445L26.6702 2.68806V10.4788C26.6702 16.055 26.7084 18.3527 26.8045 18.5623C27.1086 19.2251 27.0138 19.218 35.4959 19.218H43.2831L43.4127 19.587C43.5047 19.8491 43.5422 25.422 43.5422 38.8065V57.657H23.0126H2.48288V29.9964V2.33578L14.2521 2.36836C23.2255 2.39321 26.0983 2.43505 26.3457 2.5445ZM30.6421 5.0762C33.0804 6.88588 37.1352 10.7342 39.3066 13.2998C40.3728 14.5594 41.8904 16.5361 41.8904 16.665C41.8904 16.7156 38.9968 16.757 35.4602 16.757H29.0299V10.3659C29.0299 4.10644 29.0345 3.97729 29.2557 4.09484C29.38 4.16093 30.0039 4.60251 30.6421 5.0762Z" fill="#53C95F"/>
<path d="M18.2626 53.3301C17.9749 53.3301 17.728 53.2271 17.522 53.0211C17.3159 52.815 17.2129 52.5682 17.2129 52.2805C17.2129 51.9928 17.3159 51.7459 17.522 51.5399C17.728 51.3339 17.9749 51.2308 18.2626 51.2308C18.5502 51.2308 18.7971 51.3339 19.0031 51.5399C19.2092 51.7459 19.3122 51.9928 19.3122 52.2805C19.3122 52.471 19.2636 52.6459 19.1664 52.8053C19.0731 52.9647 18.9468 53.093 18.7874 53.1902C18.6319 53.2835 18.4569 53.3301 18.2626 53.3301ZM22.8081 44.2799L24.954 47.942L27.1 44.2799H28.6861L25.7937 48.7583L28.6861 53.2368H27.1L24.954 49.7613L22.8081 53.2368H21.222L24.0677 48.7583L21.222 44.2799H22.8081ZM32.026 41.2942V53.2368H30.6498V41.2942H32.026ZM40.8911 46.2859L39.6548 46.6357C39.5771 46.4297 39.4624 46.2295 39.3108 46.0351C39.1631 45.8368 38.9609 45.6736 38.7043 45.5453C38.4477 45.417 38.1192 45.3528 37.7188 45.3528C37.1707 45.3528 36.7139 45.4792 36.3485 45.7319C35.9869 45.9807 35.8061 46.2975 35.8061 46.6824C35.8061 47.0245 35.9305 47.2947 36.1794 47.4929C36.4282 47.6912 36.8169 47.8564 37.3456 47.9886L38.6752 48.3152C39.476 48.5095 40.0727 48.8069 40.4654 49.2074C40.858 49.6039 41.0544 50.1151 41.0544 50.741C41.0544 51.2542 40.9066 51.7129 40.6112 52.1172C40.3196 52.5215 39.9114 52.8403 39.3866 53.0735C38.8618 53.3068 38.2514 53.4234 37.5555 53.4234C36.642 53.4234 35.8858 53.2252 35.2872 52.8286C34.6885 52.4321 34.3094 51.8528 34.15 51.0909L35.4563 50.7643C35.5807 51.2464 35.8159 51.6079 36.1619 51.849C36.5117 52.09 36.9685 52.2105 37.5322 52.2105C38.1737 52.2105 38.6829 52.0744 39.06 51.8023C39.441 51.5263 39.6315 51.1958 39.6315 50.811C39.6315 50.5 39.5227 50.2395 39.3049 50.0296C39.0872 49.8158 38.7529 49.6564 38.302 49.5514L36.8091 49.2015C35.9889 49.0072 35.3863 48.7059 35.0014 48.2977C34.6204 47.8856 34.4299 47.3705 34.4299 46.7524C34.4299 46.247 34.5718 45.7999 34.8556 45.4112C35.1433 45.0224 35.534 44.7172 36.0277 44.4956C36.5253 44.274 37.089 44.1633 37.7188 44.1633C38.6052 44.1633 39.3011 44.3576 39.8064 44.7464C40.3157 45.1351 40.6773 45.6483 40.8911 46.2859Z" fill="#53C95F"/>
</svg>
