<svg width="23" height="23" viewBox="0 0 23 23" fill="none" xmlns="http://www.w3.org/2000/svg">
<path fill-rule="evenodd" clip-rule="evenodd" d="M0 11.234C0 5.02965 5.02965 0 11.234 0C17.4384 0 22.4681 5.02965 22.4681 11.234C22.4681 17.4384 17.4384 22.4681 11.234 22.4681C5.02965 22.4681 0 17.4384 0 11.234ZM11.234 5.61702C14.3234 5.61702 16.8511 8.14468 16.8511 11.234C16.8511 14.0426 14.8149 16.4298 12.0064 16.8511V12.8489H13.3404L13.6213 11.234H12.0766V10.1809C12.0766 9.75957 12.2872 9.3383 12.9894 9.3383H13.6915V7.93404C13.6915 7.93404 13.0596 7.79362 12.4277 7.79362C11.1638 7.79362 10.3213 8.56596 10.3213 9.97021V11.234H8.91702V12.8489H10.3213V16.7808C7.65319 16.3596 5.61702 14.0426 5.61702 11.234C5.61702 8.14468 8.14468 5.61702 11.234 5.61702Z" fill="#23509D"/>
</svg>
