<svg width="14" height="12" viewBox="0 0 14 12" fill="none" xmlns="http://www.w3.org/2000/svg">
<path fill-rule="evenodd" clip-rule="evenodd" d="M0.637685 0.504814C0.733269 0.298801 0.93973 0.166992 1.16684 0.166992H12.8335C13.0606 0.166992 13.2671 0.298801 13.3627 0.504814C13.4582 0.710826 13.4256 0.953587 13.2789 1.127L8.75017 6.48224V11.2503C8.75017 11.4525 8.64549 11.6403 8.47351 11.7465C8.30154 11.8528 8.08679 11.8625 7.90596 11.7721L5.57263 10.6054C5.375 10.5066 5.25017 10.3046 5.25017 10.0837V6.48224L0.721421 1.127C0.574773 0.953587 0.542101 0.710826 0.637685 0.504814ZM2.4241 1.33366L6.27892 5.89199C6.36797 5.99729 6.41684 6.13075 6.41684 6.26866V9.72314L7.5835 10.3065V6.26866C7.5835 6.13075 7.63237 5.99729 7.72142 5.89199L11.5762 1.33366H2.4241Z" fill="#878789"/>
</svg>
