<svg width="19" height="21" viewBox="0 0 19 21" fill="none" xmlns="http://www.w3.org/2000/svg">
<path fill-rule="evenodd" clip-rule="evenodd" d="M9.00559 1.00852C8.52256 1.06272 8.17971 1.11976 7.86465 1.19841C6.7055 1.48779 5.66667 2.08013 4.80218 2.94462C3.63519 4.11161 2.96664 5.59354 2.85844 7.25334C2.8336 7.63445 2.8306 7.64442 2.73415 7.66548C1.9806 7.83031 1.49121 8.17541 1.22975 8.72633C0.999353 9.21172 1 9.20378 1 11.5787C1 13.5315 1.00666 13.7705 1.06697 13.989C1.28056 14.7619 1.8144 15.2757 2.59017 15.4551C2.78169 15.4993 3.05555 15.5149 3.64036 15.5149H4.43145L4.52706 15.4193C4.57966 15.3667 4.63336 15.2705 4.64637 15.2054C4.67725 15.0509 4.67725 8.1065 4.64637 7.95198C4.63336 7.8869 4.58023 7.79118 4.52828 7.73927C4.44066 7.65164 4.40342 7.64407 4.00999 7.63415L3.58613 7.62342L3.59857 7.31917C3.64306 6.22919 4.0392 5.09335 4.69619 4.17185C5.14142 3.54742 5.94574 2.83193 6.63788 2.44466C7.44201 1.99471 8.5523 1.70955 9.5 1.70955C10.4477 1.70955 11.558 1.99471 12.3621 2.44466C13.0543 2.83193 13.8586 3.54742 14.3038 4.17185C14.9608 5.09335 15.3569 6.22919 15.4014 7.31917L15.4139 7.62342L14.99 7.63415C14.5931 7.64419 14.5599 7.65103 14.4689 7.74208C14.4095 7.80148 14.3628 7.9009 14.3489 7.99757C14.3364 8.08463 14.3313 9.76173 14.3376 11.7244L14.349 15.293L14.4732 15.4039C14.5944 15.5122 14.6075 15.5149 15.0134 15.5149H15.4293L15.4101 15.7146C15.3048 16.8117 15.0434 17.4815 14.5411 17.9405C14.0495 18.3899 13.2067 18.6611 12.0826 18.7318L11.6796 18.7572L11.6552 18.5232C11.626 18.2436 11.5642 18.1136 11.3868 17.9577C11.1759 17.7726 10.9831 17.7515 9.62299 17.7655C8.531 17.7766 8.40344 17.7846 8.283 17.8489C8.09562 17.9491 8.01936 18.0231 7.93668 18.1851C7.87294 18.31 7.86465 18.4158 7.86465 19.1049C7.86465 19.9319 7.88066 20.0282 8.04774 20.2071C8.27558 20.451 8.31806 20.4572 9.76766 20.4582C11.0552 20.459 11.0845 20.4573 11.2504 20.3734C11.4904 20.2521 11.6306 20.0351 11.6569 19.7444L11.678 19.5124L11.8725 19.4933C11.9796 19.4828 12.2639 19.4553 12.5045 19.4323C14.1431 19.275 15.1459 18.7103 15.6789 17.6447C15.9183 17.166 16.0474 16.6743 16.1274 15.9359L16.1745 15.5012L16.4463 15.4345C17.2125 15.2466 17.7225 14.7499 17.9338 13.9858C17.9932 13.7712 18 13.5207 18 11.5597C18 9.55397 17.9942 9.3524 17.9303 9.12566C17.7052 8.32826 17.1769 7.86477 16.2658 7.66548C16.1694 7.64442 16.1664 7.63445 16.1416 7.25334C15.9374 4.12264 13.6487 1.58865 10.5649 1.07907C10.2398 1.02533 9.25352 0.98072 9.00559 1.00852ZM3.9094 11.5597V14.7923L3.53859 14.7916C2.40819 14.7893 1.89206 14.4668 1.74492 13.6709C1.68875 13.3669 1.68875 9.75238 1.74492 9.44847C1.82904 8.99335 2.06955 8.66712 2.45044 8.49149C2.69186 8.38017 2.97116 8.33765 3.50056 8.33164L3.9094 8.327V11.5597ZM16.4217 8.45695C16.8089 8.6001 17.094 8.89424 17.2105 9.27079C17.2714 9.46741 17.2766 9.67426 17.269 11.5589C17.2609 13.5371 17.2569 13.6426 17.1812 13.892C17.1154 14.1086 17.065 14.1906 16.8854 14.3729C16.5696 14.6936 16.3689 14.7603 15.6516 14.7836L15.0906 14.8018V11.5788V8.35579L15.6706 8.37473C16.0776 8.38804 16.3016 8.41257 16.4217 8.45695ZM10.9072 19.1279V19.7364H9.7472H8.58725V19.1279V18.5194H9.7472H10.9072V19.1279Z" fill="#4F73B1" stroke="#4F73B1" stroke-width="0.3"/>
</svg>
