<svg width="40" height="40" viewBox="0 0 40 40" fill="none" xmlns="http://www.w3.org/2000/svg">
<path fill-rule="evenodd" clip-rule="evenodd" d="M29.0354 26.1927C31.2689 23.3501 32.4871 19.8984 32.4871 16.2436C32.4871 7.3096 25.1775 0 16.2436 0C7.3096 0 0 7.3096 0 16.2436C0 25.1775 7.3096 32.4871 16.2436 32.4871C19.8984 32.4871 23.5532 31.2689 26.1927 29.0354L37.1572 39.9998L39.9998 37.1572L29.0354 26.1927ZM16.2436 28.4262C9.54309 28.4262 4.06089 22.944 4.06089 16.2436C4.06089 9.54309 9.54309 4.06089 16.2436 4.06089C22.944 4.06089 28.4262 9.54309 28.4262 16.2436C28.4262 22.944 22.944 28.4262 16.2436 28.4262Z" fill="#A4A4A7"/>
<path d="M21.3206 17.5846H17.6087V21.3186H15.8955V17.5846H12.1836V15.9366H15.8955V12.1816H17.6087V15.9366H21.3206V17.5846Z" fill="#878789"/>
</svg>
