<svg width="24" height="23" viewBox="0 0 24 23" fill="none" xmlns="http://www.w3.org/2000/svg">
<path d="M12.1706 13.2C11.1174 13.2 10.2046 12.3574 10.2046 11.234C10.2046 10.1808 11.0472 9.26808 12.1706 9.26808C13.2238 9.26808 14.1365 10.1106 14.1365 11.234C14.1365 12.2872 13.2238 13.2 12.1706 13.2Z" fill="#23509D"/>
<path fill-rule="evenodd" clip-rule="evenodd" d="M14.5578 6.45957H9.78333C9.22163 6.52979 8.94078 6.6 8.73014 6.67021C8.44929 6.74042 8.23865 6.88085 8.02801 7.09149C7.86134 7.25816 7.78259 7.42484 7.6874 7.6263C7.66231 7.6794 7.63602 7.73505 7.60674 7.79361C7.59587 7.8262 7.58333 7.86047 7.56989 7.89719C7.49644 8.09787 7.3961 8.372 7.3961 8.84681V13.6213C7.46631 14.183 7.53652 14.4638 7.60674 14.6745C7.67695 14.9553 7.81737 15.166 8.02801 15.3766C8.19469 15.5433 8.36137 15.622 8.56283 15.7172C8.61597 15.7423 8.67152 15.7686 8.73014 15.7979C8.76273 15.8087 8.79699 15.8213 8.83372 15.8347C9.03439 15.9082 9.30852 16.0085 9.78333 16.0085H14.5578C15.1195 15.9383 15.4004 15.8681 15.611 15.7979C15.8918 15.7277 16.1025 15.5872 16.3131 15.3766C16.4798 15.2099 16.5585 15.0432 16.6537 14.8418C16.6788 14.7887 16.7051 14.7331 16.7344 14.6745C16.7453 14.6419 16.7578 14.6076 16.7712 14.5709C16.8447 14.3702 16.945 14.0961 16.945 13.6213V8.84681C16.8748 8.2851 16.8046 8.00425 16.7344 7.79361C16.6642 7.51276 16.5238 7.30213 16.3131 7.09149C16.1464 6.92481 15.9798 6.84606 15.7783 6.75088C15.7252 6.72581 15.6695 6.69947 15.611 6.67021C15.5784 6.65935 15.5441 6.64681 15.5074 6.63336C15.3067 6.55991 15.0326 6.45957 14.5578 6.45957ZM12.1706 8.21489C10.4855 8.21489 9.15142 9.54893 9.15142 11.234C9.15142 12.9191 10.4855 14.2532 12.1706 14.2532C13.8557 14.2532 15.1897 12.9191 15.1897 11.234C15.1897 9.54893 13.8557 8.21489 12.1706 8.21489ZM15.9621 8.14468C15.9621 8.53245 15.6477 8.84681 15.2599 8.84681C14.8722 8.84681 14.5578 8.53245 14.5578 8.14468C14.5578 7.7569 14.8722 7.44255 15.2599 7.44255C15.6477 7.44255 15.9621 7.7569 15.9621 8.14468Z" fill="#23509D"/>
<path fill-rule="evenodd" clip-rule="evenodd" d="M0.936523 11.234C0.936523 5.02965 5.96618 0 12.1706 0C18.375 0 23.4046 5.02965 23.4046 11.234C23.4046 17.4384 18.375 22.4681 12.1706 22.4681C5.96618 22.4681 0.936523 17.4384 0.936523 11.234ZM9.78333 5.40638H14.5578C15.1897 5.47659 15.611 5.54681 15.9621 5.68723C16.3833 5.89787 16.6642 6.0383 17.0152 6.38936C17.3663 6.74042 17.5769 7.09149 17.7174 7.44255C17.8578 7.79361 17.9982 8.21489 17.9982 8.84681V13.6213C17.928 14.2532 17.8578 14.6745 17.7174 15.0255C17.5067 15.4468 17.3663 15.7277 17.0152 16.0787C16.6642 16.4298 16.3131 16.6404 15.9621 16.7808C15.611 16.9213 15.1897 17.0617 14.5578 17.0617H9.78333C9.15142 16.9915 8.73014 16.9213 8.37908 16.7808C7.9578 16.5702 7.67695 16.4298 7.32589 16.0787C6.97482 15.7277 6.76418 15.3766 6.62376 15.0255C6.48333 14.6745 6.34291 14.2532 6.34291 13.6213V8.84681C6.41312 8.21489 6.48333 7.79361 6.62376 7.44255C6.8344 7.02127 6.97482 6.74042 7.32589 6.38936C7.67695 6.0383 8.02801 5.82766 8.37908 5.68723C8.73014 5.54681 9.15142 5.40638 9.78333 5.40638Z" fill="#23509D"/>
</svg>
