<svg width="22" height="19" viewBox="0 0 22 19" fill="none" xmlns="http://www.w3.org/2000/svg">
<path fill-rule="evenodd" clip-rule="evenodd" d="M10.3109 13.54L6.58086 9.82C6.42269 9.66239 6.33379 9.44829 6.33379 9.225C6.33379 9.00171 6.42269 8.78761 6.58086 8.63C6.91349 8.31126 7.43822 8.31126 7.77086 8.63L10.0609 10.93V0.84C10.0609 0.376081 10.4369 0 10.9009 0C11.3648 0 11.7409 0.376081 11.7409 0.84V10.93L14.0309 8.63C14.3635 8.31126 14.8882 8.31126 15.2209 8.63C15.379 8.78761 15.4679 9.00171 15.4679 9.225C15.4679 9.44829 15.379 9.66239 15.2209 9.82L11.4909 13.54C11.3369 13.7009 11.1235 13.7913 10.9009 13.79C10.6777 13.7937 10.4634 13.7029 10.3109 13.54ZM16.1209 5.42H17.3309C19.8471 5.47468 21.8455 7.55356 21.8009 10.07V13.88C21.8455 16.3964 19.8471 18.4753 17.3309 18.53L4.47086 18.45C1.95462 18.3953 -0.0437892 16.3164 0.000863162 13.8V9.99C-0.0286454 8.77617 0.426103 7.60049 1.26474 6.72245C2.10338 5.84442 3.25696 5.33621 4.47086 5.31H5.68086C6.14478 5.31 6.52086 5.68608 6.52086 6.15C6.52086 6.61392 6.14478 6.99 5.68086 6.99H4.47086C3.70152 7.01337 2.97354 7.34373 2.44936 7.90736C1.92519 8.47099 1.64844 9.22098 1.68086 9.99V13.77C1.64844 14.539 1.92519 15.289 2.44936 15.8526C2.97354 16.4163 3.70152 16.7466 4.47086 16.77L17.3309 16.91C18.1002 16.8866 18.8282 16.5563 19.3524 15.9926C19.8765 15.429 20.1533 14.679 20.1209 13.91V10.1C20.1533 9.33098 19.8765 8.58099 19.3524 8.01736C18.8282 7.45373 18.1002 7.12337 17.3309 7.1H16.1209C15.6569 7.1 15.2809 6.72392 15.2809 6.26C15.2809 5.79608 15.6569 5.42 16.1209 5.42Z" fill="#878789"/>
</svg>
