<svg width="16" height="16" viewBox="0 0 16 16" fill="none" xmlns="http://www.w3.org/2000/svg">
<path fill-rule="evenodd" clip-rule="evenodd" d="M1.5076 0.0633412C0.951151 0.209506 0.468189 0.599122 0.221593 1.10077C-0.0154303 1.58293 0.000212692 1.09562 0.000212692 8C0.000212692 13.3203 0.0066889 14.2271 0.0460154 14.4157C0.198097 15.1446 0.783521 15.7493 1.5199 15.9381C1.75223 15.9977 1.87859 16 4.94118 16H8.12119L8.28034 15.9205C8.50532 15.8081 8.61241 15.639 8.62739 15.3726C8.64166 15.119 8.55437 14.9328 8.35524 14.7922L8.22199 14.698L5.02569 14.6824L1.82935 14.6667L1.70421 14.5991C1.54712 14.5144 1.45479 14.4159 1.39285 14.2672C1.3497 14.1637 1.34442 13.4809 1.34442 8C1.34442 2.51909 1.3497 1.8363 1.39285 1.73277C1.45479 1.58406 1.54712 1.48565 1.70421 1.40088L1.82935 1.33333L5.02569 1.31765L8.22199 1.30196L8.35524 1.20784C8.55437 1.06717 8.64166 0.881004 8.62739 0.627451C8.61241 0.361004 8.50532 0.191937 8.28034 0.0795294L8.12119 0L4.92836 0.00172549C1.89008 0.00335686 1.72445 0.00636863 1.5076 0.0633412ZM11.1259 3.35595C10.7015 3.49186 10.5116 4.0043 10.7566 4.35272C10.8023 4.41779 11.4803 5.10585 12.2632 5.88179C13.0462 6.65773 13.6914 7.30353 13.6972 7.31689C13.7029 7.33026 11.9355 7.34118 9.76959 7.34118H5.83158L5.6938 7.41177C5.41704 7.55357 5.26922 7.86519 5.34408 8.14902C5.39483 8.34136 5.52082 8.49961 5.6938 8.58824L5.83158 8.65882H9.76959C11.9355 8.65882 13.7029 8.66974 13.6972 8.68311C13.6914 8.69647 13.0462 9.34228 12.2632 10.1182C11.4803 10.8941 10.8023 11.5822 10.7566 11.6473C10.3753 12.1895 11.0219 12.8991 11.6163 12.5908C11.7418 12.5258 15.8811 8.42544 15.9487 8.29923C16.0171 8.17167 16.0171 7.82833 15.9487 7.70077C15.8794 7.57142 11.7402 3.47338 11.6114 3.40659C11.487 3.34209 11.2473 3.31708 11.1259 3.35595Z" fill="#4E4E4E"/>
</svg>
