<?xml version="1.0" encoding="utf-8"?>
<!-- Generator: Adobe Illustrator 24.3.0, SVG Export Plug-In . SVG Version: 6.00 Build 0)  -->
<svg version="1.1" id="_x31_" xmlns="http://www.w3.org/2000/svg" xmlns:xlink="http://www.w3.org/1999/xlink" x="0px" y="0px"
	 viewBox="0 0 425.2 283.46" style="enable-background:new 0 0 425.2 283.46;" xml:space="preserve">
<style type="text/css">
	.st0{fill-rule:evenodd;clip-rule:evenodd;fill:#144A94;}
</style>
<g>
	<path class="st0" d="M206.95,105.83c-2.44,0-4.65-0.99-6.25-2.59c-1.6-1.6-2.59-3.81-2.59-6.25V49.15c0-1.57-0.65-3-1.68-4.04
		c-1.04-1.04-2.47-1.68-4.04-1.68h-78.76c-1.57,0-3,0.65-4.04,1.68c-1.04,1.04-1.68,2.47-1.68,4.04v119.29h-9.36V49.15
		c0-4.15,1.7-7.92,4.43-10.66c2.73-2.73,6.5-4.43,10.66-4.43h78.76c4.15,0,7.92,1.7,10.66,4.43c2.73,2.73,4.43,6.5,4.43,10.66v47.31
		h10.26c0-15.77,0-31.54,0-47.31c0-4.15,1.7-7.92,4.43-10.66c2.73-2.73,6.5-4.43,10.66-4.43h78.76c4.15,0,7.92,1.7,10.66,4.43
		c2.73,2.73,4.43,6.5,4.43,10.66v119.29h-9.36V49.15c0-1.57-0.65-3-1.68-4.04c-1.04-1.04-2.47-1.68-4.04-1.68h-78.76
		c-1.57,0-3,0.65-4.04,1.68c-1.04,1.04-1.68,2.47-1.68,4.04c0,15.94,0,31.89,0,47.83c0,2.44-0.99,4.65-2.59,6.25
		s-3.81,2.59-6.25,2.59H206.95L206.95,105.83z M247.02,130.21c-22.94,0-45.9,0-68.83,0c-1.25,0-2.39-0.51-3.21-1.33v-0.01
		c-0.82-0.82-1.34-1.96-1.34-3.21c0-17.98,0.01-35.96,0.01-53.94c0-1.03-0.42-1.97-1.1-2.65l0,0c-0.68-0.68-1.62-1.1-2.64-1.1
		h-33.87c-1.03,0-1.96,0.42-2.64,1.1l-0.01,0c-0.68,0.68-1.1,1.61-1.1,2.64v59.73h2.5V71.73c0-0.34,0.14-0.66,0.36-0.88
		c0.23-0.23,0.54-0.36,0.88-0.36h33.87c0.35,0,0.66,0.14,0.88,0.36v0.01c0.23,0.23,0.37,0.54,0.37,0.88
		c0,17.99,0.01,35.96,0.01,53.94c0,1.93,0.79,3.69,2.06,4.97l0,0c1.28,1.28,3.03,2.07,4.96,2.07c22.94,0,45.89,0,68.83,0
		c1.93,0,3.69-0.79,4.96-2.06l0.01-0.01c1.27-1.28,2.06-3.03,2.06-4.96c0-17.98,0.01-35.96,0.01-53.94c0-0.34,0.14-0.65,0.37-0.88
		v-0.01c0.22-0.22,0.54-0.36,0.88-0.36h33.87c0.34,0,0.65,0.14,0.88,0.37h0c0.22,0.22,0.36,0.54,0.36,0.88v59.73h2.5V71.73
		c0-1.03-0.42-1.96-1.1-2.64l0,0c-0.68-0.68-1.61-1.1-2.65-1.1H255.3c-1.03,0-1.96,0.42-2.64,1.1l0,0c-0.68,0.68-1.1,1.61-1.1,2.65
		c0,17.98,0.01,35.96,0.01,53.94c0,1.25-0.51,2.39-1.33,3.21l-0.01,0.01C249.41,129.7,248.27,130.21,247.02,130.21L247.02,130.21z
		 M246.9,118.86V65.72c0-0.69,0.28-1.31,0.73-1.76l0.01-0.01c0.45-0.45,1.07-0.73,1.76-0.73h45.72c0.69,0,1.31,0.28,1.76,0.73
		l0.01,0.01c0.45,0.45,0.73,1.07,0.73,1.76v73.75h4.16V65.72c0-1.82-0.75-3.49-1.95-4.69l-0.01-0.01c-1.21-1.21-2.87-1.95-4.7-1.95
		h-45.72c-1.82,0-3.48,0.75-4.69,1.95l-0.01,0.01c-1.21,1.21-1.95,2.87-1.95,4.69v53.14c0,0.68-0.28,1.31-0.73,1.76v0.01
		c-0.45,0.45-1.07,0.73-1.76,0.73h-55.27c-0.69,0-1.31-0.28-1.76-0.73v-0.01c-0.45-0.45-0.73-1.08-0.73-1.76
		c0-17.71,0-35.43,0-53.14c0-1.82-0.75-3.49-1.95-4.69l-0.01-0.01c-1.21-1.21-2.87-1.95-4.7-1.95h-45.72c-1.83,0-3.49,0.75-4.7,1.95
		l-0.01,0.01c-1.21,1.21-1.95,2.87-1.95,4.7v73.75h4.16V65.72c0-0.69,0.28-1.31,0.73-1.77c0.45-0.45,1.08-0.73,1.77-0.73h45.72
		c0.69,0,1.31,0.28,1.76,0.73l0.01,0.01c0.45,0.45,0.73,1.07,0.73,1.76c0,17.71,0,35.43,0,53.14c0,1.83,0.75,3.5,1.95,4.7l0,0
		c1.21,1.21,2.87,1.96,4.7,1.96h55.27c1.83,0,3.49-0.75,4.7-1.96l0,0C246.15,122.36,246.9,120.69,246.9,118.86L246.9,118.86z
		 M238.02,108.01c0-17.05,0-34.11,0-51.16c0-0.68,0.28-1.31,0.74-1.76c0.45-0.45,1.08-0.74,1.76-0.74h63.37
		c0.68,0,1.31,0.28,1.76,0.74c0.45,0.45,0.74,1.08,0.74,1.76v92.44h6.24V56.85c0-2.41-0.98-4.59-2.56-6.17
		c-1.58-1.58-3.77-2.56-6.17-2.56h-63.37c-2.41,0-4.59,0.98-6.17,2.56c-1.58,1.58-2.56,3.77-2.56,6.17c0,17.05,0,34.11,0,51.16
		c0,0.68-0.28,1.31-0.74,1.76c-0.45,0.45-1.08,0.74-1.76,0.74h-33.36c-0.68,0-1.31-0.28-1.76-0.74c-0.45-0.45-0.74-1.08-0.74-1.76
		c0-17.05,0-34.11,0-51.16c0-2.41-0.98-4.59-2.56-6.17c-1.58-1.58-3.77-2.56-6.17-2.56h-63.37c-2.41,0-4.59,0.98-6.17,2.56
		s-2.56,3.77-2.56,6.17v92.44h6.24V56.85c0-0.68,0.28-1.31,0.74-1.76c0.45-0.45,1.08-0.74,1.76-0.74h63.37
		c0.68,0,1.31,0.28,1.76,0.74c0.45,0.45,0.74,1.08,0.74,1.76c0,17.05,0,34.11,0,51.16c0,2.41,0.98,4.59,2.56,6.17
		c1.58,1.58,3.77,2.56,6.17,2.56h33.36c2.41,0,4.59-0.98,6.17-2.56S238.02,110.42,238.02,108.01z"/>
	<path class="st0" d="M0,184.61v32.19h8.58l-0.86-24.68l0.39-0.09l8.11,24.76h7.42l8.07-24.76l0.39,0.09l-0.86,24.68h8.58v-32.19
		H25.88l-5.84,20.21h-0.3l-6.14-20.21H0L0,184.61z M61.75,217.23c8.71,0,14.89-2.06,14.89-11.97v-9.1c0-9.91-6.18-11.84-14.89-11.84
		c-8.71,0-14.89,1.93-14.89,11.84v9.1C46.86,215.17,53.04,217.23,61.75,217.23L61.75,217.23z M61.75,209.76
		c-4.46,0-6.05-0.64-6.05-5.45v-7.25c0-4.81,1.59-5.28,6.05-5.28c4.46,0,6.05,0.51,6.05,5.28v7.25
		C67.8,209.12,66.22,209.76,61.75,209.76L61.75,209.76z M111.15,196.16v-1.24c0-8.24-4.63-10.6-13.17-10.6
		c-9.44,0-15.15,1.59-15.15,12.23v8.32c0,11.76,6.39,12.36,15.15,12.36c10.04,0,13.17-2.45,13.17-11.5v-0.94h-8.84v0.94
		c0,3.78-1.72,4.03-5.28,4.03c-5.15,0-5.36-2.02-5.36-6.82v-5.02c0-4.59,0.47-6.14,5.36-6.14c2.92,0,5.28,0.56,5.28,3.13v1.24
		H111.15L111.15,196.16z M126.77,184.61h-8.58v32.19h8.58v-12.62h2.58l8.97,12.62h10.64l-12.27-16.39l11.33-15.79h-10.39l-8.28,12.1
		h-2.58V184.61L126.77,184.61z M168.1,217.23c8.71,0,14.89-2.06,14.89-11.97v-9.1c0-9.91-6.18-11.84-14.89-11.84
		c-8.71,0-14.89,1.93-14.89,11.84v9.1C153.21,215.17,159.38,217.23,168.1,217.23L168.1,217.23z M168.1,209.76
		c-4.46,0-6.05-0.64-6.05-5.45v-7.25c0-4.81,1.59-5.28,6.05-5.28c4.46,0,6.05,0.51,6.05,5.28v7.25
		C174.15,209.12,172.56,209.76,168.1,209.76L168.1,209.76z M193.46,184.61v21.11c0,3.18-0.82,4.38-3.18,4.38
		c-1.16,0-1.85-0.04-2.62-0.3v6.95c1.33,0.26,2.53,0.39,4.38,0.39c6.52,0,9.57-4.51,9.57-11.54v-13.52h9.31v24.72h8.58v-32.19
		H193.46L193.46,184.61z M230.84,184.61v21.11c0,3.18-0.82,4.38-3.18,4.38c-1.16,0-1.85-0.04-2.62-0.3v6.95
		c1.33,0.26,2.53,0.39,4.38,0.39c6.52,0,9.57-4.51,9.57-11.54v-13.52h9.31v24.72h8.58v-32.19H230.84L230.84,184.61z M273.37,191.65
		H288v-7.04h-23.22v32.19h23.52v-7.04h-14.93v-6.27h13.73v-5.96h-13.73V191.65L273.37,191.65z M304.82,184.61h-8.58v32.19h8.58
		v-12.62h2.57l8.97,12.62h10.64l-12.27-16.39l11.33-15.79h-10.39l-8.28,12.1h-2.57V184.61L304.82,184.61z M347.44,192.08h8.67v-7.47
		h-25.92v7.47h8.67v24.72h8.58V192.08L347.44,192.08z M376.1,217.23c8.71,0,14.89-2.06,14.89-11.97v-9.1
		c0-9.91-6.18-11.84-14.89-11.84s-14.89,1.93-14.89,11.84v9.1C361.21,215.17,367.39,217.23,376.1,217.23L376.1,217.23z
		 M376.1,209.76c-4.46,0-6.05-0.64-6.05-5.45v-7.25c0-4.81,1.59-5.28,6.05-5.28c4.46,0,6.05,0.51,6.05,5.28v7.25
		C382.15,209.12,380.57,209.76,376.1,209.76L376.1,209.76z M406.61,207.87h7.6c8.97,0,10.99-2.83,10.99-11.89
		c0-8.41-3-11.37-10.99-11.37h-16.18v32.19h8.58V207.87L406.61,207.87z M406.61,191.65h5.88c3.35,0,3.86,1.12,3.86,4.42
		c0,4.16-0.6,4.76-3.86,4.76h-5.88V191.65z"/>
	<path class="st0" d="M1.65,237.12c0.25-2.19,0.84-2.74,3.58-2.74c2.61,0,3.74,0.82,3.74,4.67H2.98v1.28h5.98
		c0,3.63-0.47,4.91-3.74,4.91c-2.86,0-3.77-0.53-3.77-2.89H0c0,3.12,1.28,4.17,5.23,4.17c3.96,0,5.19-1.3,5.19-6.68
		c0-5.44-1.19-6.74-5.19-6.74c-3.44,0-4.84,0.82-5.03,4.02H1.65L1.65,237.12z M18.71,233.24v1.56h-1.63c-3,0-4.47,1.25-4.47,4.82
		c0,3.56,1.47,4.81,4.47,4.81h1.63v1.95h1.46v-1.95h1.68c2.96,0,4.42-1.25,4.42-4.81c0-3.54-1.47-4.82-4.44-4.82h-1.67v-1.56H18.71
		L18.71,233.24z M20.17,236.05h1.51c2.28,0,3.14,1.11,3.14,3.58c0,2.47-0.84,3.56-3.12,3.56h-1.53V236.05L20.17,236.05z
		 M18.71,243.19h-1.53c-2.37,0-3.12-1.09-3.12-3.56c0-2.47,0.75-3.58,3.12-3.58h1.53V243.19L18.71,243.19z M34.64,233.24v1.56H33
		c-3,0-4.47,1.25-4.47,4.82c0,3.56,1.47,4.81,4.47,4.81h1.63v1.95h1.46v-1.95h1.68c2.96,0,4.42-1.25,4.42-4.81
		c0-3.54-1.47-4.82-4.44-4.82h-1.67v-1.56H34.64L34.64,233.24z M36.09,236.05h1.51c2.28,0,3.14,1.11,3.14,3.58
		c0,2.47-0.84,3.56-3.12,3.56h-1.53V236.05L36.09,236.05z M34.64,243.19h-1.53c-2.37,0-3.12-1.09-3.12-3.56
		c0-2.47,0.75-3.58,3.12-3.58h1.53V243.19L34.64,243.19z M46.35,239.05v-4.53h7v-1.28h-8.46v13.14h8.42v-1.28h-6.96v-4.77h6.68
		v-1.28H46.35L46.35,239.05z M57.43,233.24h-1.46v13.14h1.46v-6.05h1.3l6.02,6.05h2.02l-6.74-6.79l6.03-6.35h-1.95l-5.39,5.81h-1.3
		V233.24L57.43,233.24z M73.55,234.52h4.25v-1.28h-9.95v1.28h4.25v11.86h1.46V234.52L73.55,234.52z M81.44,233.24h-1.46v13.14h2.32
		l7.49-12.02v12.02h1.46v-13.14h-2.33l-7.47,12.14V233.24L81.44,233.24z M95.78,240.33h4.67c1.91,0,2.46,0.21,2.46,2.35
		c0,2.16-0.82,2.42-3.07,2.42h-4.05V240.33L95.78,240.33z M95.78,234.52h4.72c1.58,0,2.02,0.49,2.02,2.09
		c0,1.88-0.61,2.44-2.56,2.44h-4.18V234.52L95.78,234.52z M94.32,246.38h6.7c2.53,0,3.33-1.46,3.33-3.81c0-1.74-0.28-2.61-2.02-3.09
		c1.49-0.53,1.63-1.54,1.63-3.02c0-2.37-1.07-3.23-3.32-3.23h-6.33V246.38L94.32,246.38z M108.53,239.05v-5.81h-1.46v13.14h1.46
		v-6.05h7.68v6.05h1.46v-13.14h-1.46v5.81H108.53L108.53,239.05z M120.4,239.82c0,5.58,1.11,6.7,5.51,6.7c4.44,0,5.51-1.12,5.51-6.7
		c0-5.6-1.07-6.72-5.47-6.72C121.5,233.1,120.4,234.22,120.4,239.82L120.4,239.82z M121.86,239.82c0-4.67,0.44-5.44,4.07-5.44
		c3.6,0,4.04,0.77,4.04,5.44c0,4.63-0.46,5.42-4.04,5.42C122.35,245.24,121.86,244.45,121.86,239.82L121.86,239.82z M142.85,241.99
		c0,2.6-0.68,3.25-3.79,3.25c-3,0-3.79-0.86-3.79-5.39c0-4.53,0.81-5.47,3.79-5.47c3.05,0,3.37,0.72,3.61,3.02h1.42
		c-0.18-2.96-0.82-4.3-5.03-4.3c-3.98,0-5.25,1.21-5.25,6.75c0,5.58,1.28,6.67,5.25,6.67c4.12,0,5.21-1.12,5.21-4.53H142.85
		L142.85,241.99z M151.3,234.52h4.25v-1.28h-9.95v1.28h4.25v11.86h1.46V234.52L151.3,234.52z M159.19,233.24h-1.46v13.14h5.88
		c2.77,0,3.86-1.09,3.86-3.75c0-2.72-1.04-3.58-3.89-3.58h-4.39V233.24L159.19,233.24z M159.19,240.33h4.12c2.09,0,2.7,0.28,2.7,2.3
		c0,1.75-0.42,2.47-2.51,2.47h-4.32V240.33L159.19,240.33z M183.64,239.05v-5.81h-1.46v13.14h1.46v-6.05h7.68v6.05h1.46v-13.14
		h-1.46v5.81H183.64L183.64,239.05z M195.09,246.38h1.58l1.05-2.7h6.63l0.98,2.7h1.56L202,233.24h-2.12L195.09,246.38L195.09,246.38
		z M203.88,242.4h-5.81l2.89-8.07L203.88,242.4L203.88,242.4z M209.26,245.1h-0.81v4.3h1.33v-3.02h9.35v3.02h1.33v-4.3h-0.95v-11.86
		h-8.93v6.77c0,2.04-0.33,3.56-1.33,5.07V245.1L209.26,245.1z M218.07,234.52v10.58h-7.16c0.81-1.39,1.14-2.61,1.14-5.26v-5.32
		H218.07L218.07,234.52z M224.24,239.05v-4.53h7v-1.28h-8.46v13.14h8.42v-1.28h-6.96v-4.77h6.68v-1.28H224.24L224.24,239.05z
		 M234.3,233.24l4.95,6.39l-5.89,6.75h2.11l5.1-6.05h1.28v6.05h1.46v-6.05h1.26l5.1,6.05h2.11l-5.89-6.75l4.95-6.39h-1.81
		l-4.46,5.81h-1.26v-5.81h-1.46v5.81h-1.28l-4.44-5.81H234.3L234.3,233.24z M255.63,239.05v-5.81h-1.46v13.14h1.46v-6.05h7.68v6.05
		h1.46v-13.14h-1.46v5.81H255.63L255.63,239.05z M267.5,239.82c0,5.58,1.11,6.7,5.51,6.7c4.44,0,5.51-1.12,5.51-6.7
		c0-5.6-1.07-6.72-5.47-6.72C268.6,233.1,267.5,234.22,267.5,239.82L267.5,239.82z M268.95,239.82c0-4.67,0.44-5.44,4.07-5.44
		c3.6,0,4.03,0.77,4.03,5.44c0,4.63-0.46,5.42-4.03,5.42C269.44,245.24,268.95,244.45,268.95,239.82L268.95,239.82z M289.95,241.99
		c0,2.6-0.68,3.25-3.79,3.25c-3,0-3.79-0.86-3.79-5.39c0-4.53,0.81-5.47,3.79-5.47c3.05,0,3.37,0.72,3.61,3.02h1.42
		c-0.18-2.96-0.82-4.3-5.03-4.3c-3.98,0-5.25,1.21-5.25,6.75c0,5.58,1.28,6.67,5.25,6.67c4.12,0,5.21-1.12,5.21-4.53H289.95
		L289.95,241.99z M298.4,234.52h4.25v-1.28h-9.95v1.28h4.25v11.86h1.46V234.52L298.4,234.52z M306.29,233.24h-1.46v13.14h5.88
		c2.77,0,3.86-1.09,3.86-3.75c0-2.72-1.03-3.58-3.89-3.58h-4.39V233.24L306.29,233.24z M306.29,240.33h4.12c2.09,0,2.7,0.28,2.7,2.3
		c0,1.75-0.42,2.47-2.51,2.47h-4.32V240.33L306.29,240.33z M330.74,233.24h-1.46v13.14h1.46v-6.05h1.3l6.02,6.05h2.02l-6.74-6.79
		l6.03-6.35h-1.95l-5.39,5.81h-1.3V233.24L330.74,233.24z M341.35,246.38h1.58l1.05-2.7h6.63l0.98,2.7h1.56l-4.89-13.14h-2.12
		L341.35,246.38L341.35,246.38z M350.14,242.4h-5.81l2.89-8.07L350.14,242.4L350.14,242.4z M354.15,233.24v3.07
		c0,3.33,0.93,4.17,4.47,4.17c1.14,0,2.86-0.03,3.96-0.28v6.18h1.46v-13.14h-1.46v5.72c-0.96,0.21-2.6,0.25-3.61,0.25
		c-2.3,0-3.37-0.12-3.37-2.63v-3.33H354.15L354.15,233.24z M368.58,239.05v-4.53h7v-1.28h-8.46v13.14h8.42v-1.28h-6.96v-4.77h6.68
		v-1.28H368.58L368.58,239.05z M386.89,241.99c0,2.6-0.68,3.25-3.79,3.25c-3,0-3.79-0.86-3.79-5.39c0-4.53,0.81-5.47,3.79-5.47
		c3.05,0,3.37,0.72,3.61,3.02h1.42c-0.18-2.96-0.82-4.3-5.03-4.3c-3.98,0-5.25,1.21-5.25,6.75c0,5.58,1.28,6.67,5.25,6.67
		c4.12,0,5.21-1.12,5.21-4.53H386.89L386.89,241.99z M395.34,234.52h4.25v-1.28h-9.95v1.28h4.25v11.86h1.46V234.52L395.34,234.52z
		 M403.23,240.33h4.67c1.91,0,2.46,0.21,2.46,2.35c0,2.16-0.82,2.42-3.07,2.42h-4.05V240.33L403.23,240.33z M403.23,234.52h4.72
		c1.58,0,2.02,0.49,2.02,2.09c0,1.88-0.61,2.44-2.56,2.44h-4.18V234.52L403.23,234.52z M401.77,246.38h6.7
		c2.53,0,3.33-1.46,3.33-3.81c0-1.74-0.28-2.61-2.02-3.09c1.49-0.53,1.63-1.54,1.63-3.02c0-2.37-1.07-3.23-3.32-3.23h-6.33V246.38
		L401.77,246.38z M414.17,239.82c0,5.58,1.11,6.7,5.51,6.7c4.44,0,5.51-1.12,5.51-6.7c0-5.6-1.07-6.72-5.47-6.72
		C415.27,233.1,414.17,234.22,414.17,239.82L414.17,239.82z M415.63,239.82c0-4.67,0.44-5.44,4.07-5.44c3.6,0,4.03,0.77,4.03,5.44
		c0,4.63-0.46,5.42-4.03,5.42C416.12,245.24,415.63,244.45,415.63,239.82z"/>
</g>
</svg>
