<svg width="27" height="27" viewBox="0 0 27 27" fill="none" xmlns="http://www.w3.org/2000/svg">
<path d="M13.5 26C20.4036 26 26 20.4036 26 13.5C26 6.59644 20.4036 1 13.5 1C6.59644 1 1 6.59644 1 13.5C1 20.4036 6.59644 26 13.5 26Z" fill="white"/>
<path d="M13.5 25.5966C20.1809 25.5966 25.5968 20.1807 25.5968 13.4999C25.5968 6.81899 20.1809 1.40308 13.5 1.40308C6.81919 1.40308 1.40327 6.81899 1.40327 13.4999C1.40327 20.1807 6.81919 25.5966 13.5 25.5966Z" fill="white" stroke="url(#paint0_linear_34_8)"/>
<path d="M12.7546 16.3847C12.7546 15.5156 12.9037 14.7996 13.2018 14.2363C13.5124 13.6569 13.9596 13.0293 14.5435 12.3534C14.9908 11.8384 15.3199 11.396 15.5312 11.0258C15.7548 10.6396 15.8666 10.2051 15.8666 9.72228C15.8666 9.04638 15.6553 8.49929 15.233 8.08082C14.8107 7.66235 14.2454 7.45321 13.5373 7.45321C12.1956 7.45321 11.1831 8.07272 10.4998 9.31191L8.69231 7.79115C9.22645 6.84163 9.91593 6.11746 10.7607 5.61864C11.6055 5.10362 12.5993 4.84619 13.7422 4.84619C15.1336 4.84619 16.2393 5.24052 17.0592 6.029C17.8915 6.80145 18.3077 7.87167 18.3077 9.2395C18.3077 9.89935 18.2208 10.4787 18.0468 10.9775C17.8854 11.4763 17.6865 11.9029 17.4505 12.2569C17.2145 12.5948 16.9039 12.9892 16.5188 13.4397C16.0467 13.9868 15.6926 14.4696 15.4566 14.888C15.233 15.3065 15.1212 15.8053 15.1212 16.3847H12.7546ZM13.9472 22.1539C13.5124 22.1539 13.1522 21.9768 12.8664 21.6228C12.5932 21.2526 12.4565 20.8021 12.4565 20.271C12.4565 19.74 12.5932 19.2974 12.8664 18.9434C13.1522 18.5894 13.5124 18.4123 13.9472 18.4123C14.3696 18.4123 14.7175 18.5894 14.9908 18.9434C15.2765 19.2974 15.4193 19.74 15.4193 20.271C15.4193 20.8021 15.2765 21.2526 14.9908 21.6228C14.7175 21.9768 14.3696 22.1539 13.9472 22.1539Z" fill="#3DCE8F"/>
<defs>
<linearGradient id="paint0_linear_34_8" x1="13.5001" y1="0.99985" x2="13.5001" y2="25.9999" gradientUnits="userSpaceOnUse">
<stop stop-color="#E7ECF5"/>
<stop offset="1" stop-color="#C7D1E2" stop-opacity="0"/>
</linearGradient>
</defs>
</svg>
