<svg width="39" height="39" viewBox="0 0 39 39" fill="none" xmlns="http://www.w3.org/2000/svg">
<g filter="url(#filter0_d_412_11333)">
<circle cx="19.5" cy="15.5" r="15.5" fill="white"/>
<circle cx="19.5" cy="15.5" r="15" stroke="url(#paint0_linear_412_11333)"/>
</g>
<path d="M18.108 16.752C18.108 16.248 18.22 15.8327 18.444 15.506C18.6773 15.17 19.0133 14.806 19.452 14.414C19.788 14.1153 20.0353 13.8587 20.194 13.644C20.362 13.42 20.446 13.168 20.446 12.888C20.446 12.496 20.2873 12.1787 19.97 11.936C19.6527 11.6933 19.228 11.572 18.696 11.572C17.688 11.572 16.9273 11.9313 16.414 12.65L15.056 11.768C15.4573 11.2173 15.9753 10.7973 16.61 10.508C17.2447 10.2093 17.9913 10.06 18.85 10.06C19.8953 10.06 20.726 10.2887 21.342 10.746C21.9673 11.194 22.28 11.8147 22.28 12.608C22.28 12.9907 22.2147 13.3267 22.084 13.616C21.9627 13.9053 21.8133 14.1527 21.636 14.358C21.4587 14.554 21.2253 14.7827 20.936 15.044C20.5813 15.3613 20.3153 15.6413 20.138 15.884C19.97 16.1267 19.886 16.416 19.886 16.752H18.108ZM19.004 20.098C18.6773 20.098 18.4067 19.9953 18.192 19.79C17.9867 19.5753 17.884 19.314 17.884 19.006C17.884 18.698 17.9867 18.4413 18.192 18.236C18.4067 18.0307 18.6773 17.928 19.004 17.928C19.3213 17.928 19.5827 18.0307 19.788 18.236C20.0027 18.4413 20.11 18.698 20.11 19.006C20.11 19.314 20.0027 19.5753 19.788 19.79C19.5827 19.9953 19.3213 20.098 19.004 20.098Z" fill="#3DCE8F"/>
<defs>
<filter id="filter0_d_412_11333" x="0" y="0" width="39" height="39" filterUnits="userSpaceOnUse" color-interpolation-filters="sRGB">
<feFlood flood-opacity="0" result="BackgroundImageFix"/>
<feColorMatrix in="SourceAlpha" type="matrix" values="0 0 0 0 0 0 0 0 0 0 0 0 0 0 0 0 0 0 127 0" result="hardAlpha"/>
<feOffset dy="4"/>
<feGaussianBlur stdDeviation="2"/>
<feComposite in2="hardAlpha" operator="out"/>
<feColorMatrix type="matrix" values="0 0 0 0 0.931792 0 0 0 0 0.935433 0 0 0 0 0.95 0 0 0 1 0"/>
<feBlend mode="normal" in2="BackgroundImageFix" result="effect1_dropShadow_412_11333"/>
<feBlend mode="normal" in="SourceGraphic" in2="effect1_dropShadow_412_11333" result="shape"/>
</filter>
<linearGradient id="paint0_linear_412_11333" x1="19.5" y1="0" x2="19.5" y2="31" gradientUnits="userSpaceOnUse">
<stop stop-color="#E7ECF5"/>
<stop offset="1" stop-color="#C7D1E2" stop-opacity="0"/>
</linearGradient>
</defs>
</svg>
