<svg width="15" height="17" viewBox="0 0 15 17" fill="none" xmlns="http://www.w3.org/2000/svg">
<path fill-rule="evenodd" clip-rule="evenodd" d="M6.93939 0.0122804C6.64491 0.0480489 6.08759 0.155772 5.87586 0.21792C3.691 0.858864 2.09568 2.6244 1.62633 4.92081C1.54561 5.31574 1.54191 5.42548 1.52202 8.01008L1.50143 10.6899L1.41244 10.8609C1.36352 10.955 1.05821 11.4187 0.734024 11.8914C0.409839 12.3641 0.113499 12.8089 0.0755263 12.8797C-0.0324853 13.0812 -0.0226558 13.6748 0.0922701 13.894C0.224164 14.1455 0.422098 14.3453 0.654491 14.4613L0.866067 14.567L2.71871 14.5778L4.57135 14.5887L4.61919 14.7869C4.68871 15.0747 4.92689 15.5549 5.14568 15.8482C5.50298 16.3272 6.12881 16.7475 6.75251 16.9272C7.08664 17.0235 7.90226 17.0244 8.24749 16.9289C9.27232 16.6453 10.1342 15.7795 10.3796 14.7869L10.4286 14.5887L12.2813 14.5778L14.1339 14.567L14.3455 14.4613C14.5779 14.3453 14.7758 14.1455 14.9077 13.894C15.0227 13.6748 15.0325 13.0812 14.9245 12.8797C14.8865 12.8089 14.5902 12.3641 14.266 11.8914C13.9418 11.4187 13.6365 10.955 13.5876 10.8609L13.4986 10.6899L13.476 7.99108C13.451 4.99382 13.4534 5.02503 13.1761 4.17301C12.4933 2.07533 10.7813 0.539266 8.63991 0.103013C8.27806 0.0293094 7.25075 -0.0255026 6.93939 0.0122804ZM8.5091 1.3161C9.73763 1.60095 10.7882 2.33305 11.4877 3.39173C11.7911 3.85098 12.0325 4.4267 12.1808 5.04522C12.2542 5.35105 12.2596 5.51363 12.2831 8.0861C12.3098 11.0212 12.3035 10.9314 12.5179 11.3992C12.569 11.5108 12.8797 11.9955 13.2081 12.4764L13.8054 13.3506L10.6527 13.3604C8.91869 13.3657 6.08131 13.3657 4.34733 13.3604L1.19462 13.3506L1.79186 12.4764C2.12035 11.9955 2.43096 11.5108 2.48209 11.3992C2.69651 10.9314 2.69016 11.0212 2.71692 8.0861C2.74039 5.51363 2.74584 5.35105 2.81921 5.04522C3.1271 3.76132 3.82659 2.72563 4.86511 2.01585C5.43821 1.62418 6.2674 1.31332 6.95807 1.23126C7.28136 1.19283 8.19232 1.24266 8.5091 1.3161ZM9.16532 14.6525C9.09738 14.837 8.87971 15.1467 8.70009 15.3143C7.98063 15.986 6.93864 15.9607 6.24449 15.2547C6.05776 15.0648 5.81816 14.7004 5.81816 14.6063C5.81816 14.5951 6.57678 14.586 7.504 14.586C9.09397 14.586 9.18846 14.5898 9.16532 14.6525Z" fill="#4F73B1"/>
</svg>
