<svg width="8" height="11" viewBox="0 0 8 11" fill="none" xmlns="http://www.w3.org/2000/svg">
<path d="M3.108 6.752C3.108 6.248 3.22 5.83267 3.444 5.506C3.67733 5.17 4.01333 4.806 4.452 4.414C4.788 4.11533 5.03533 3.85867 5.194 3.644C5.362 3.42 5.446 3.168 5.446 2.888C5.446 2.496 5.28733 2.17867 4.97 1.936C4.65267 1.69333 4.228 1.572 3.696 1.572C2.688 1.572 1.92733 1.93133 1.414 2.65L0.056 1.768C0.457333 1.21733 0.975333 0.797333 1.61 0.508C2.24467 0.209333 2.99133 0.0599995 3.85 0.0599995C4.89533 0.0599995 5.726 0.288666 6.342 0.746C6.96733 1.194 7.28 1.81467 7.28 2.608C7.28 2.99067 7.21467 3.32667 7.084 3.616C6.96267 3.90533 6.81333 4.15267 6.636 4.358C6.45867 4.554 6.22533 4.78267 5.936 5.044C5.58133 5.36133 5.31533 5.64133 5.138 5.884C4.97 6.12667 4.886 6.416 4.886 6.752H3.108ZM4.004 10.098C3.67733 10.098 3.40667 9.99533 3.192 9.79C2.98667 9.57533 2.884 9.314 2.884 9.006C2.884 8.698 2.98667 8.44133 3.192 8.236C3.40667 8.03067 3.67733 7.928 4.004 7.928C4.32133 7.928 4.58267 8.03067 4.788 8.236C5.00267 8.44133 5.11 8.698 5.11 9.006C5.11 9.314 5.00267 9.57533 4.788 9.79C4.58267 9.99533 4.32133 10.098 4.004 10.098Z" fill="#3DCE8F"/>
</svg>
