<svg width="24" height="24" viewBox="0 0 24 24" fill="none" xmlns="http://www.w3.org/2000/svg">
<circle cx="12" cy="12" r="11.5" fill="#F2F3F7" stroke="#4F73B1"/>
<path fill-rule="evenodd" clip-rule="evenodd" d="M11.7834 4.83382C11.0157 4.948 10.3298 5.29212 9.79213 5.83283C9.20236 6.42598 8.89673 7.11092 8.8547 7.93364C8.796 9.08271 9.39201 10.1812 10.4196 10.8178C10.925 11.131 11.4125 11.29 12.003 11.3342C13.0974 11.4163 14.0307 11.0908 14.7841 10.3643C15.52 9.65475 15.8491 8.77923 15.7579 7.77405C15.6798 6.9125 15.2769 6.16905 14.5806 5.60159C14.0305 5.15326 13.5229 4.93183 12.8235 4.83502C12.4876 4.7885 12.0912 4.78804 11.7834 4.83382ZM12.9822 5.67042C13.4213 5.77774 13.7539 5.95988 14.1259 6.29672C14.6074 6.73262 14.854 7.20992 14.9176 7.82892C14.993 8.56352 14.7549 9.23347 14.2292 9.76574C13.9041 10.0948 13.4237 10.3742 13.0136 10.4728C12.4115 10.6174 11.6901 10.5549 11.1733 10.3133C10.4671 9.98309 9.9458 9.36789 9.75401 8.63848C9.68078 8.35995 9.68882 7.72756 9.7692 7.44158C9.98583 6.67102 10.6958 5.95523 11.4838 5.71308C11.9096 5.58222 12.5471 5.56406 12.9822 5.67042ZM9.23017 11.3938C8.80061 11.4367 8.35587 11.5897 8.00452 11.8155C7.12725 12.3791 6.55974 13.6395 6.42913 15.3145C6.35576 16.2554 6.41494 16.7205 6.67028 17.2096C6.81132 17.4797 7.07836 17.7769 7.35139 17.9678C7.55712 18.1116 7.9074 18.2618 8.21312 18.3373L8.46613 18.3998H12.4019H16.3376L16.5906 18.3375C17.4788 18.1186 18.0989 17.5504 18.3221 16.7508C18.4375 16.3374 18.4227 15.3537 18.2894 14.5764C17.9931 12.8485 17.2455 11.8111 16.0628 11.4869C15.7924 11.4128 15.3086 11.3564 15.1652 11.3823C15.028 11.4071 14.8363 11.5041 14.4034 11.7674C13.937 12.0511 13.8624 12.088 13.515 12.2075C13.1033 12.349 12.7979 12.4038 12.4198 12.4038C12.0239 12.4038 11.7211 12.3525 11.3218 12.2178C10.9447 12.0905 10.9284 12.0824 10.3394 11.7285C10.0289 11.5419 9.79911 11.4223 9.7078 11.3999C9.55175 11.3616 9.55177 11.3616 9.23017 11.3938ZM9.96117 12.4454C10.4914 12.7666 10.7128 12.8702 11.1761 13.0137C12.384 13.3877 13.6183 13.2072 14.782 12.4863C15.3087 12.16 15.2965 12.1649 15.5208 12.1917C16.5413 12.3137 17.1772 13.1252 17.4469 14.6495C17.5579 15.277 17.5919 16.1526 17.5182 16.4848C17.3994 17.0201 17.0171 17.3968 16.4337 17.5534C16.2631 17.5992 16.0426 17.6019 12.4019 17.6019C8.75167 17.6019 8.54091 17.5993 8.36774 17.5531C7.94822 17.4411 7.58582 17.1708 7.41664 16.8438C7.2704 16.5611 7.23557 16.3248 7.25595 15.7533C7.27653 15.1765 7.30633 14.9083 7.40233 14.4368C7.47716 14.0692 7.64842 13.5479 7.76835 13.3228C8.13072 12.6425 8.6226 12.2704 9.26264 12.1923C9.36573 12.1797 9.46004 12.1679 9.47224 12.166C9.48442 12.1642 9.70445 12.2899 9.96117 12.4454Z" fill="#4F73B1" stroke="#4F73B1" stroke-width="0.5"/>
</svg>
