<svg width="20" height="20" viewBox="0 0 20 20" fill="none" xmlns="http://www.w3.org/2000/svg">
<path d="M18 20.0002H2C0.89543 20.0002 0 19.1048 0 18.0002V7.04924C0.0337512 6.3781 0.397279 5.76711 0.971 5.41724L8.971 0.617239C9.60412 0.237613 10.3949 0.237613 11.028 0.617239L19.028 5.41724C19.6292 5.78001 19.9976 6.43008 20 7.13224V18.0002C20 19.1048 19.1046 20.0002 18 20.0002ZM2 7.86824V18.0002H18V7.86824L10 13.2012L2 7.86824ZM10 2.33224L3.316 6.34224L10 10.7982L16.683 6.34224L10 2.33224Z" fill="#D7D7D8"/>
</svg>
