<svg width="24" height="24" viewBox="0 0 24 24" fill="none" xmlns="http://www.w3.org/2000/svg">
<g clip-path="url(#clip0_1038_15771)">
<path d="M13.57 21.8304C13.56 20.9704 13.53 20.5104 13.47 20.1904C13.2 18.7704 12.4 17.4404 11.29 16.5404C10.68 16.0404 9.98004 15.6504 9.24004 15.3904C10.03 14.8704 10.66 14.0504 10.9 13.1604C10.97 12.9104 11.01 12.5704 11.01 12.2304C11.01 11.8904 10.98 11.5604 10.91 11.3104C10.59 10.0804 9.66004 9.07037 8.48004 8.63037C7.79004 8.37037 7.00004 8.31037 6.30004 8.43037C4.44004 8.79037 3.13004 10.3304 3.12004 12.1804C3.12004 12.5204 3.14004 12.7904 3.21004 13.0504C3.28004 13.3104 3.37004 13.5604 3.53004 13.8804C3.83004 14.4804 4.32004 15.0104 4.90004 15.3804C3.30004 15.9304 2.02004 17.0104 1.25004 18.5004C0.710039 19.5604 0.540039 20.4204 0.540039 22.1504V23.4304H13.58L13.57 21.8304ZM4.89004 12.0304C4.94004 11.3304 5.39004 10.6704 6.01004 10.3604H6.02004C6.30004 10.2104 6.54004 10.1304 6.78004 10.1104H6.79004C7.02004 10.0804 7.28004 10.0904 7.60004 10.1604C8.31004 10.3004 9.00004 10.9504 9.20004 11.6904C9.23004 11.8104 9.25004 12.0004 9.25004 12.2004C9.25004 12.4004 9.23004 12.6004 9.20004 12.7204C9.00004 13.4704 8.36004 14.0804 7.57004 14.2604L7.52004 14.2704L7.42004 14.2904C7.13004 14.3404 6.94004 14.3404 6.63004 14.2704C5.55004 14.0404 4.80004 13.0704 4.89004 12.0304ZM2.33004 21.7504L2.34004 21.3304C2.36004 20.6804 2.38004 20.5204 2.46004 20.2204C2.83004 18.8804 3.73004 17.8104 4.99004 17.2204C5.91004 16.7904 6.90004 16.6604 7.96004 16.8504C9.69004 17.1404 11.19 18.4904 11.64 20.1704V20.1804C11.73 20.4904 11.74 20.6304 11.76 21.3204L11.77 21.7604H2.33004V21.7504Z" fill="#23509D"/>
<path d="M20.4301 0.950195H13.5401C12.0301 0.950195 10.8101 2.1702 10.8101 3.6802V8.5602C10.8101 9.6202 11.4201 10.5602 12.3601 11.0102L12.5001 12.3002C12.5501 12.7502 12.8301 13.1402 13.2401 13.3402C13.4101 13.4302 13.6101 13.4802 13.8101 13.4802C14.0501 13.4802 14.2901 13.4102 14.5001 13.2902L17.7001 11.3002H20.4301C21.9401 11.3002 23.1601 10.0802 23.1601 8.5702V3.6802C23.1601 2.1702 21.9401 0.950195 20.4301 0.950195ZM21.6401 3.6802V8.5702C21.6401 9.2502 21.0801 9.8002 20.4101 9.8002H17.2601L13.9501 11.8602L13.7201 9.8802L13.2201 9.7602C12.6701 9.6202 12.2901 9.1302 12.2901 8.5702V3.6902C12.2901 3.0102 12.8501 2.4602 13.5201 2.4602H13.7701V2.4502H20.4101C21.0901 2.4502 21.6401 3.0102 21.6401 3.6802Z" fill="#23509D"/>
</g>
<defs>
<clipPath id="clip0_1038_15771">
<rect width="24" height="24" fill="white"/>
</clipPath>
</defs>
</svg>
