<svg width="14" height="14" viewBox="0 0 14 14" fill="none" xmlns="http://www.w3.org/2000/svg">
<path fill-rule="evenodd" clip-rule="evenodd" d="M9.86683 9.43398C10.6002 8.50065 11.0002 7.36732 11.0002 6.16732C11.0002 3.23398 8.60016 0.833984 5.66683 0.833984C2.7335 0.833984 0.333496 3.23398 0.333496 6.16732C0.333496 9.10065 2.7335 11.5007 5.66683 11.5007C6.86683 11.5007 8.06683 11.1007 8.9335 10.3673L12.5335 13.9673L13.4668 13.034L9.86683 9.43398ZM5.66683 10.1673C3.46683 10.1673 1.66683 8.36732 1.66683 6.16732C1.66683 3.96732 3.46683 2.16732 5.66683 2.16732C7.86683 2.16732 9.66683 3.96732 9.66683 6.16732C9.66683 8.36732 7.86683 10.1673 5.66683 10.1673Z" fill="#878789"/>
</svg>
