<svg width="14" height="14" viewBox="0 0 14 14" fill="none" xmlns="http://www.w3.org/2000/svg">
<path d="M8.53218 6.99986L12.9661 2.56592C13.1765 2.35586 13.2949 2.07081 13.2952 1.77347C13.2954 1.47614 13.1776 1.19088 12.9675 0.980445C12.7574 0.770011 12.4724 0.651643 12.1751 0.651381C11.8777 0.651118 11.5925 0.768982 11.382 0.979044L6.9481 5.41297L2.51417 0.979044C2.30373 0.768611 2.01832 0.650391 1.72073 0.650391C1.42313 0.650391 1.13772 0.768611 0.927287 0.979044C0.716853 1.18948 0.598633 1.47489 0.598633 1.77248C0.598633 2.07008 0.716853 2.35549 0.927287 2.56592L5.36122 6.99986L0.927287 11.4338C0.716853 11.6442 0.598633 11.9296 0.598633 12.2272C0.598633 12.5248 0.716853 12.8102 0.927287 13.0207C1.13772 13.2311 1.42313 13.3493 1.72073 13.3493C2.01832 13.3493 2.30373 13.2311 2.51417 13.0207L6.9481 8.58674L11.382 13.0207C11.5925 13.2311 11.8779 13.3493 12.1755 13.3493C12.4731 13.3493 12.7585 13.2311 12.9689 13.0207C13.1793 12.8102 13.2976 12.5248 13.2976 12.2272C13.2976 11.9296 13.1793 11.6442 12.9689 11.4338L8.53218 6.99986Z" fill="#878789"/>
</svg>
