<svg width="20" height="20" viewBox="0 0 20 20" fill="none" xmlns="http://www.w3.org/2000/svg">
<path d="M16.8749 17.5004C16.7928 17.5005 16.7115 17.4844 16.6357 17.453C16.5599 17.4215 16.491 17.3754 16.4331 17.3172L2.68312 3.5672C2.57086 3.44904 2.5092 3.29169 2.51128 3.12872C2.51337 2.96574 2.57904 2.81003 2.69429 2.69478C2.80954 2.57953 2.96525 2.51386 3.12823 2.51177C3.2912 2.50968 3.44855 2.57134 3.56671 2.68361L17.3167 16.4336C17.404 16.521 17.4635 16.6323 17.4876 16.7535C17.5117 16.8747 17.4993 17.0004 17.4521 17.1145C17.4048 17.2287 17.3247 17.3263 17.222 17.395C17.1193 17.4637 16.9985 17.5003 16.8749 17.5004V17.5004Z" fill="#4E4E4E"/>
<path d="M9.98702 15.0005C8.36631 15.0005 6.80342 14.5208 5.3417 13.5747C4.01084 12.7153 2.81279 11.4844 1.87685 10.02V10.0169C2.65576 8.90084 3.50889 7.95709 4.42529 7.19616C4.43358 7.18923 4.44035 7.18065 4.44515 7.17097C4.44996 7.1613 4.45271 7.15073 4.45322 7.13993C4.45373 7.12914 4.452 7.11836 4.44814 7.10827C4.44427 7.09818 4.43836 7.089 4.43076 7.08131L3.65264 6.30436C3.63881 6.29042 3.62024 6.2822 3.60062 6.28133C3.58101 6.28046 3.56178 6.28701 3.54678 6.29967C2.57334 7.11998 1.66982 8.12623 0.848338 9.30436C0.707004 9.50721 0.629165 9.7475 0.624714 9.9947C0.620262 10.2419 0.689399 10.4848 0.823338 10.6926C1.85498 12.3071 3.18271 13.6669 4.6624 14.6243C6.32842 15.7036 8.12139 16.2505 9.98702 16.2505C10.994 16.2473 11.9939 16.0814 12.948 15.759C12.9605 15.7548 12.9718 15.7474 12.9808 15.7375C12.9897 15.7277 12.9959 15.7157 12.999 15.7028C13.002 15.6898 13.0016 15.6763 12.998 15.6635C12.9943 15.6508 12.9874 15.6391 12.978 15.6297L12.1351 14.7868C12.1157 14.7679 12.0917 14.7543 12.0654 14.7474C12.0392 14.7406 12.0116 14.7407 11.9855 14.7477C11.3326 14.9158 10.6611 15.0007 9.98702 15.0005V15.0005Z" fill="#4E4E4E"/>
<path d="M19.1733 9.32031C18.1398 7.72188 16.7987 6.36406 15.2956 5.39336C13.6327 4.31836 11.7968 3.75 9.98663 3.75C8.99029 3.75177 8.00135 3.92119 7.06124 4.25117C7.04871 4.25553 7.0375 4.26301 7.02866 4.27289C7.01983 4.28278 7.01365 4.29476 7.01072 4.30769C7.00779 4.32063 7.0082 4.3341 7.01191 4.34683C7.01563 4.35956 7.02252 4.37114 7.03194 4.38047L7.87374 5.22227C7.89334 5.24153 7.91767 5.25528 7.94428 5.26214C7.97089 5.269 7.99883 5.26872 8.0253 5.26133C8.66474 5.08835 9.32421 5.00048 9.98663 5C11.5761 5 13.1343 5.48555 14.6175 6.44531C15.9733 7.32031 17.1855 8.55 18.1237 10C18.1244 10.0009 18.1248 10.002 18.1248 10.0031C18.1248 10.0043 18.1244 10.0054 18.1237 10.0063C17.4426 11.0785 16.5975 12.0372 15.619 12.8473C15.6107 12.8542 15.6038 12.8627 15.5989 12.8724C15.5941 12.8821 15.5913 12.8927 15.5907 12.9036C15.5902 12.9144 15.5919 12.9253 15.5957 12.9354C15.5996 12.9456 15.6056 12.9548 15.6132 12.9625L16.3905 13.7395C16.4043 13.7533 16.4228 13.7616 16.4423 13.7625C16.4618 13.7634 16.481 13.757 16.496 13.7445C17.5405 12.865 18.4447 11.8313 19.1773 10.6789C19.3067 10.4758 19.3752 10.2399 19.3745 9.99904C19.3738 9.7582 19.304 9.52263 19.1733 9.32031V9.32031Z" fill="#4E4E4E"/>
<path d="M10 6.25C9.71915 6.24985 9.43913 6.2813 9.16527 6.34375C9.15144 6.34662 9.13864 6.35319 9.12825 6.36276C9.11785 6.37233 9.11025 6.38453 9.10624 6.39808C9.10223 6.41163 9.10197 6.42601 9.10549 6.43969C9.109 6.45337 9.11616 6.46585 9.12621 6.47578L13.5243 10.8727C13.5342 10.8827 13.5467 10.8899 13.5604 10.8934C13.574 10.8969 13.5884 10.8966 13.602 10.8926C13.6155 10.8886 13.6277 10.881 13.6373 10.8706C13.6469 10.8602 13.6534 10.8474 13.6563 10.8336C13.7815 10.2844 13.7814 9.71404 13.6559 9.16489C13.5305 8.61574 13.283 8.1019 12.9317 7.66154C12.5804 7.22118 12.1345 6.86562 11.6269 6.62125C11.1194 6.37688 10.5633 6.24999 10 6.25V6.25Z" fill="#4E4E4E"/>
<path d="M6.47608 9.12767C6.46615 9.11763 6.45367 9.11047 6.43999 9.10695C6.42631 9.10343 6.41193 9.10369 6.39838 9.1077C6.38483 9.11171 6.37263 9.11932 6.36306 9.12971C6.35349 9.14011 6.34692 9.1529 6.34405 9.16673C6.20239 9.78562 6.22018 10.4303 6.39575 11.0405C6.57132 11.6506 6.89893 12.2062 7.34786 12.6551C7.7968 13.1041 8.35237 13.4317 8.9625 13.6072C9.57264 13.7828 10.2174 13.8006 10.8362 13.6589C10.8501 13.6561 10.8629 13.6495 10.8733 13.6399C10.8837 13.6304 10.8913 13.6181 10.8953 13.6046C10.8993 13.5911 10.8995 13.5767 10.896 13.563C10.8925 13.5493 10.8853 13.5368 10.8753 13.5269L6.47608 9.12767Z" fill="#4E4E4E"/>
</svg>
