<svg width="22" height="22" viewBox="0 0 22 22" fill="none" xmlns="http://www.w3.org/2000/svg">
<path fill-rule="evenodd" clip-rule="evenodd" d="M11 22C17.0751 22 22 17.0751 22 11C22 4.92487 17.0751 0 11 0C4.92487 0 0 4.92487 0 11C0 17.0751 4.92487 22 11 22ZM8.98333 16.0417C9.25087 16.0417 9.37313 15.9226 9.5209 15.7788L9.53333 15.7667L10.8546 14.4819L13.6033 16.5127C14.1092 16.7919 14.4743 16.6473 14.6003 16.0431L16.4048 7.53981C16.5895 6.79913 16.1224 6.46319 15.6385 6.68289L5.04273 10.7686C4.31947 11.0587 4.32369 11.4622 4.91089 11.642L7.63 12.4906L13.925 8.51919C14.2222 8.33898 14.4949 8.43586 14.2711 8.63454L9.17059 13.2374L9.17052 13.2373L9.17051 13.2374L9.17033 13.2376L9.17049 13.2377L8.98333 16.0417Z" fill="#23509D"/>
</svg>
