<svg width="10" height="13" viewBox="0 0 10 13" fill="none" xmlns="http://www.w3.org/2000/svg">
<path fill-rule="evenodd" clip-rule="evenodd" d="M4.63578 0.00859101C4.09529 0.0757866 3.57776 0.264595 3.12685 0.559112C2.87616 0.722871 2.41763 1.17063 2.24993 1.41543C2.01087 1.76444 1.84803 2.13108 1.74223 2.55864C1.69397 2.75363 1.68764 2.87625 1.67713 3.82253L1.6655 4.87048H1.387C1.22089 4.87048 1.04682 4.88618 0.955606 4.90937C0.506883 5.02352 0.16126 5.36211 0.0437459 5.80265C-0.014582 6.02129 -0.014582 11.8492 0.0437459 12.0678C0.16126 12.5084 0.506883 12.847 0.955606 12.9611C1.08961 12.9952 1.58962 13 5 13C8.41038 13 8.91039 12.9952 9.04439 12.9611C9.49312 12.847 9.83874 12.5084 9.95625 12.0678C10.0146 11.8492 10.0146 6.02129 9.95625 5.80265C9.83874 5.36211 9.49312 5.02352 9.04439 4.90937C8.95318 4.88618 8.77911 4.87048 8.613 4.87048H8.3345L8.32287 3.82253C8.31236 2.87625 8.30603 2.75363 8.25777 2.55864C8.09645 1.90681 7.81597 1.41439 7.3448 0.955731C6.86163 0.485413 6.35663 0.211931 5.70243 0.0662852C5.48525 0.01794 4.84096 -0.0169154 4.63578 0.00859101ZM5.60217 0.878272C6.07391 0.9993 6.43294 1.20462 6.7821 1.553C7.02943 1.7998 7.20345 2.0582 7.32466 2.35868C7.47459 2.7303 7.47919 2.77202 7.49064 3.86064L7.50126 4.87048H5H2.49874L2.50868 3.86064C2.51784 2.92656 2.52273 2.83622 2.5738 2.65655C2.70607 2.19137 2.9118 1.84619 3.25355 1.51613C3.65539 1.128 4.04373 0.939828 4.68781 0.821213C4.84037 0.79309 5.40837 0.828555 5.60217 0.878272ZM8.97043 5.74852C9.00995 5.77733 9.0664 5.83245 9.09591 5.87104C9.14926 5.94083 9.14958 5.95643 9.15637 8.89906C9.16394 12.1732 9.17463 11.9649 8.99174 12.1011L8.89345 12.1743H5H1.10655L1.00826 12.1011C0.826593 11.9658 0.837442 12.1667 0.837442 8.9377C0.837442 6.9306 0.846131 5.99464 0.865201 5.94548C0.902092 5.85036 0.988855 5.76086 1.08459 5.71915C1.14883 5.69118 1.84671 5.68612 5.03062 5.69064C8.8923 5.69613 8.8987 5.69621 8.97043 5.74852ZM4.81047 7.05544C4.23307 7.15424 3.81393 7.72064 3.90585 8.27792C3.96058 8.60991 4.20755 8.95513 4.47432 9.0726L4.58374 9.12079V9.81658C4.58374 10.4586 4.5877 10.5199 4.63497 10.6104C4.78378 10.8952 5.21622 10.8952 5.36503 10.6104C5.4123 10.5199 5.41626 10.4586 5.41626 9.81658V9.12079L5.52568 9.0726C5.79245 8.95513 6.03942 8.60991 6.09415 8.27792C6.15792 7.89136 5.96241 7.44863 5.63422 7.23635C5.39125 7.07919 5.0761 7.00999 4.81047 7.05544ZM5.11764 7.8829C5.1971 7.91973 5.28618 8.04625 5.28618 8.12229C5.28618 8.13903 5.2677 8.1907 5.24515 8.23717C5.19499 8.34036 5.05518 8.41203 4.94864 8.38919C4.85262 8.36859 4.74778 8.2662 4.72668 8.17244C4.70389 8.07104 4.77644 7.93284 4.87827 7.88381C4.9826 7.83359 5.01095 7.83346 5.11764 7.8829Z" fill="#C64040"/>
</svg>
