<svg width="10" height="13" viewBox="0 0 10 13" fill="none" xmlns="http://www.w3.org/2000/svg">
<path fill-rule="evenodd" clip-rule="evenodd" d="M4.57895 0.0334322C3.72655 0.18193 3.00149 0.727218 2.63462 1.49568C2.37959 2.0299 2.356 2.21077 2.35587 3.63258L2.35578 4.76891L1.84733 4.76934C1.49568 4.76964 1.28598 4.7813 1.16736 4.8071C0.615838 4.92711 0.156105 5.40353 0.040302 5.97507C-0.013434 6.24038 -0.013434 11.5247 0.040302 11.7901C0.156105 12.3616 0.615838 12.838 1.16736 12.958C1.42467 13.014 8.57962 13.014 8.83693 12.958C9.38845 12.838 9.84818 12.3616 9.96399 11.7901C9.99437 11.64 9.99998 11.1864 9.99998 8.88256C9.99998 5.85352 10.0053 5.961 9.83799 5.60687C9.714 5.34446 9.44545 5.06616 9.19223 4.93767C8.85033 4.76421 8.95719 4.76985 6.00066 4.76934L3.33591 4.76891L3.33633 3.64527C3.33667 2.75774 3.34429 2.48428 3.37264 2.34388C3.46892 1.86711 3.80709 1.42453 4.24254 1.20547C4.75454 0.947882 5.2448 0.947908 5.76011 1.20554C5.95128 1.30115 6.02592 1.35706 6.19203 1.5292C6.35226 1.69525 6.41339 1.7813 6.4945 1.95499C6.64422 2.27553 6.66744 2.42707 6.66796 3.08663L6.66838 3.65162H7.16104H7.65373L7.64251 2.97236C7.63205 2.33896 7.6269 2.27596 7.56635 2.03917C7.33237 1.12388 6.66357 0.400741 5.79351 0.122257C5.41321 0.000522993 4.9586 -0.0327164 4.57895 0.0334322ZM8.79003 5.86675C8.84278 5.90491 8.9135 5.97835 8.94719 6.02995L9.00845 6.1237V8.88256V11.6414L8.94719 11.7352C8.9135 11.7868 8.84276 11.8602 8.79 11.8984L8.6941 11.9678H5.00214H1.31019L1.21428 11.8984C1.16153 11.8602 1.09079 11.7868 1.0571 11.7352L0.995837 11.6414L0.98927 8.9396C0.984933 7.14922 0.991206 6.20511 1.00789 6.14091C1.03823 6.02413 1.20387 5.84455 1.3112 5.81208C1.35628 5.79844 2.89409 5.79062 5.04101 5.79311L8.6941 5.79732L8.79003 5.86675ZM4.75932 7.29769C4.38451 7.40213 4.09552 7.80049 4.09552 8.21272C4.09552 8.45385 4.26177 8.80288 4.43884 8.93355L4.50904 8.98535L4.51668 9.62784L4.52433 10.2703L4.59007 10.3732C4.69156 10.532 4.81112 10.5967 5.00214 10.5961C5.20829 10.5954 5.33892 10.5118 5.4301 10.3222C5.49133 10.1948 5.49221 10.1845 5.49221 9.59031V8.98759L5.56391 8.93467C5.74249 8.80293 5.90877 8.45479 5.90877 8.21272C5.90877 7.79445 5.61845 7.4001 5.23419 7.29637C5.05813 7.24886 4.93336 7.24921 4.75932 7.29769Z" fill="#3DCE8F"/>
</svg>
