<svg width="24" height="24" viewBox="0 0 24 24" fill="none" xmlns="http://www.w3.org/2000/svg">
<path fill-rule="evenodd" clip-rule="evenodd" d="M5 2.75C4.30964 2.75 3.75 3.30964 3.75 4V20C3.75 20.6904 4.30964 21.25 5 21.25H19C19.6904 21.25 20.25 20.6904 20.25 20V8.31066L14.6893 2.75H5ZM2.25 4C2.25 2.48122 3.48122 1.25 5 1.25H14.7929C15.1244 1.25 15.4424 1.3817 15.6768 1.61612L21.3839 7.32322C21.6183 7.55764 21.75 7.87559 21.75 8.20711V20C21.75 21.5188 20.5188 22.75 19 22.75H5C3.48122 22.75 2.25 21.5188 2.25 20V4Z" fill="#23509D"/>
<path fill-rule="evenodd" clip-rule="evenodd" d="M14.25 2.24135C14.25 1.48408 15.1656 1.10484 15.701 1.64031L21.3596 7.29889C21.8951 7.83436 21.5159 8.74993 20.7586 8.74993H15.1C14.6306 8.74993 14.25 8.36937 14.25 7.89993V2.24135ZM15.75 3.81059V7.24993H19.1893L15.75 3.81059Z" fill="#23509D"/>
<path fill-rule="evenodd" clip-rule="evenodd" d="M7.89837 13.6122C8.19127 13.3194 8.66614 13.3194 8.95903 13.6122L10.6108 15.264L15.0835 11.4303C15.398 11.1607 15.8714 11.1971 16.141 11.5116C16.4106 11.8261 16.3741 12.2996 16.0597 12.5692L11.13 16.7946C10.7927 17.0837 10.2898 17.0644 9.97575 16.7503L7.89837 14.6729C7.60548 14.38 7.60548 13.9051 7.89837 13.6122Z" fill="#23509D"/>
</svg>
