<svg width="23" height="23" viewBox="0 0 23 23" fill="none" xmlns="http://www.w3.org/2000/svg">
<path fill-rule="evenodd" clip-rule="evenodd" d="M0.467773 11.234C0.467773 5.02965 5.49743 0 11.7018 0C17.9062 0 22.9359 5.02965 22.9359 11.234C22.9359 17.4384 17.9062 22.4681 11.7018 22.4681C5.49743 22.4681 0.467773 17.4384 0.467773 11.234ZM15.9848 8.07447C16.4763 8.00425 16.8976 7.93404 17.3188 7.7234C17.038 8.21489 16.6167 8.63617 16.1252 8.91702C16.2656 12.217 13.8784 15.7979 9.59543 15.7979C8.3316 15.7979 7.13799 15.3766 6.08479 14.7447C7.27841 14.8851 8.54224 14.534 9.38479 13.9021C8.3316 13.9021 7.48905 13.2 7.2082 12.2872C7.55926 12.3574 7.91033 12.2872 8.26139 12.217C7.2082 11.9362 6.43586 10.9532 6.43586 9.9C6.78692 10.0404 7.13799 10.1809 7.48905 10.1809C6.50607 9.47872 6.15501 8.14468 6.78692 7.09149C7.98054 8.49574 9.66565 9.40851 11.5614 9.47872C11.2103 8.07447 12.3337 6.67021 13.8082 6.67021C14.4401 6.67021 15.072 6.95106 15.4933 7.37234C16.055 7.23191 16.5465 7.09149 16.9678 6.81064C16.8273 7.37234 16.4763 7.79362 15.9848 8.07447Z" fill="#23509D"/>
</svg>
