<svg xmlns="http://www.w3.org/2000/svg" width="700pt" height="700pt" version="1.1" viewBox="0 0 700 700">
  <path style="fill: #23509D;stroke: white;stroke-width: 25px;" d="m350 70c-38.66 0-70 31.34-70 70s31.34 70 70 70 70-31.34 70-70-31.34-70-70-70zm-116.67 70c0-64.434 52.234-116.67 116.67-116.67s116.67 52.234 116.67 116.67-52.234 116.67-116.67 116.67-116.67-52.234-116.67-116.67zm-93.332 326.67c0-90.207 73.125-163.34 163.33-163.34h93.336c12.887 0 23.332 10.449 23.332 23.336s-10.445 23.332-23.332 23.332h-93.336c-64.434 0-116.66 52.234-116.66 116.67 0 12.887 10.445 23.332 23.332 23.332h140c12.887 0 23.332 10.445 23.332 23.332s-10.445 23.336-23.332 23.336h-140c-38.66 0-70-31.34-70-70zm373.33-116.67c12.887 0 23.336 10.445 23.336 23.332v46.668h46.664c12.887 0 23.336 10.445 23.336 23.332s-10.449 23.336-23.336 23.336h-46.664v46.664c0 12.887-10.449 23.336-23.336 23.336s-23.332-10.449-23.332-23.336v-46.664h-46.668c-12.887 0-23.332-10.449-23.332-23.336s10.445-23.332 23.332-23.332h46.668v-46.668c0-12.887 10.445-23.332 23.332-23.332z" fill-rule="evenodd"/>
</svg>