<svg width="23" height="23" viewBox="0 0 23 23" fill="none" xmlns="http://www.w3.org/2000/svg">
<path d="M9.06408 9.12766H8.24475C8.01065 9.12766 7.96383 9.23785 7.96383 9.35931C7.96383 9.5763 8.2416 10.6524 9.25719 12.0756C9.93425 13.0476 10.8882 13.5745 11.7562 13.5745C12.277 13.5745 12.3414 13.4574 12.3414 13.2559V12.5213C12.3414 12.2872 12.3908 12.2405 12.5557 12.2405C12.6772 12.2405 12.8856 12.3013 13.3717 12.7699C13.537 12.9352 13.6613 13.0734 13.7625 13.186C14.0013 13.4516 14.1118 13.5745 14.3313 13.5745H15.1506C15.3847 13.5745 15.5017 13.4574 15.4342 13.2265C15.3603 12.9964 15.0951 12.6624 14.7431 12.2666C14.6463 12.1522 14.5249 12.0333 14.4175 11.9281C14.313 11.8258 14.2217 11.7363 14.1789 11.6764C14.0574 11.5202 14.0921 11.4508 14.1789 11.312C14.1789 11.312 15.1772 9.90606 15.2813 9.42878C15.3334 9.25519 15.2813 9.12766 15.0335 9.12766H14.2142C14.0059 9.12766 13.9098 9.23785 13.8577 9.35931C13.8577 9.35931 13.4411 10.3747 12.8508 11.0342C12.6599 11.2251 12.5731 11.2859 12.4689 11.2859C12.4168 11.2859 12.3414 11.2251 12.3414 11.0516V9.42878C12.3414 9.22048 12.281 9.12766 12.1073 9.12766H10.8198C10.6896 9.12766 10.6113 9.22432 10.6113 9.31595C10.6113 9.39132 10.6543 9.44456 10.7092 9.51248C10.7981 9.62247 10.9181 9.77097 10.9369 10.1143V11.3206C10.9369 11.5851 10.8891 11.6331 10.7849 11.6331C10.5072 11.6331 9.83151 10.6132 9.43078 9.44612C9.35226 9.21929 9.27348 9.12766 9.06408 9.12766Z" fill="#23509D"/>
<path fill-rule="evenodd" clip-rule="evenodd" d="M11.6383 0C17.8427 0 22.8724 5.02965 22.8724 11.234C22.8724 17.4384 17.8427 22.4681 11.6383 22.4681C5.43395 22.4681 0.404297 17.4384 0.404297 11.234C0.404297 5.02965 5.43395 0 11.6383 0ZM6.02132 11C6.02132 8.46244 6.02132 7.19366 6.80964 6.40534C7.59796 5.61702 8.86674 5.61702 11.4043 5.61702H11.8724C14.4099 5.61702 15.6787 5.61702 16.467 6.40534C17.2554 7.19366 17.2554 8.46244 17.2554 11V11.4681C17.2554 14.0056 17.2554 15.2744 16.467 16.0627C15.6787 16.8511 14.4099 16.8511 11.8724 16.8511H11.4043C8.86674 16.8511 7.59796 16.8511 6.80964 16.0627C6.02132 15.2744 6.02132 14.0056 6.02132 11.4681V11Z" fill="#23509D"/>
</svg>
